<?xml version="1.0" encoding="UTF-8" standalone="no"?>
<!-- Created with Inkscape (http://www.inkscape.org/) -->

<svg
   xmlns:dc="http://purl.org/dc/elements/1.1/"
   xmlns:cc="http://creativecommons.org/ns#"
   xmlns:rdf="http://www.w3.org/1999/02/22-rdf-syntax-ns#"
   xmlns:svg="http://www.w3.org/2000/svg"
   xmlns="http://www.w3.org/2000/svg"
   xmlns:sodipodi="http://sodipodi.sourceforge.net/DTD/sodipodi-0.dtd"
   xmlns:inkscape="http://www.inkscape.org/namespaces/inkscape"
   width="121.25803mm"
   height="34.493771mm"
   viewBox="0 0 121.25802 34.493771"
   version="1.1"
   id="svg8"
   inkscape:version="0.92.3 (2405546, 2018-03-11)"
   sodipodi:docname="2DGas.svg">
  <sodipodi:namedview
     id="base"
     pagecolor="#ffffff"
     bordercolor="#666666"
     borderopacity="1.0"
     inkscape:pageopacity="0.0"
     inkscape:pageshadow="2"
     inkscape:zoom="2.5700612"
     inkscape:cx="290.89249"
     inkscape:cy="1.4398375"
     inkscape:document-units="mm"
     inkscape:current-layer="layer1"
     showgrid="false"
     inkscape:window-width="1920"
     inkscape:window-height="1054"
     inkscape:window-x="1920"
     inkscape:window-y="0"
     inkscape:window-maximized="1"
     fit-margin-top="0"
     fit-margin-left="0"
     fit-margin-right="0"
     fit-margin-bottom="0" />
  <defs
     id="defs2" />
  <metadata
     id="metadata5">
    <rdf:RDF>
      <cc:Work
         rdf:about="">
        <dc:format>image/svg+xml</dc:format>
        <dc:type
           rdf:resource="http://purl.org/dc/dcmitype/StillImage" />
        <dc:title></dc:title>
      </cc:Work>
    </rdf:RDF>
  </metadata>
  <g
     transform="translate(-63.851151,-111.89084)"
     id="layer1"
     inkscape:groupmode="layer"
     inkscape:label="Layer 1">
    <ellipse
       ry="13.816333"
       rx="60.129013"
       cy="126.20717"
       cx="124.48016"
       id="path815"
       style="opacity:1;fill:none;fill-opacity:1;stroke:#000000;stroke-width:1;stroke-linejoin:bevel;stroke-miterlimit:4;stroke-dasharray:none;stroke-dashoffset:0;stroke-opacity:1" />
    <path
       d="m 99.238649,121.15074 a 1.9560169,1.9560169 0 0 1 -1.832982,2.06895 1.9560169,1.9560169 0 0 1 -2.071732,-1.82983 1.9560169,1.9560169 0 0 1 1.826673,-2.07452 1.9560169,1.9560169 0 0 1 2.077295,1.82351"
       sodipodi:open="true"
       sodipodi:end="6.2174562"
       sodipodi:start="6.2235474"
       sodipodi:ry="1.9560169"
       sodipodi:rx="1.9560169"
       sodipodi:cy="121.26733"
       sodipodi:cx="97.28611"
       sodipodi:type="arc"
       id="path855"
       style="opacity:1;fill:#ff0000;fill-opacity:1;stroke:#000000;stroke-width:0.5;stroke-linejoin:bevel;stroke-miterlimit:4;stroke-dasharray:none;stroke-dashoffset:0;stroke-opacity:1" />
    <path
       d="m 113.96025,124.75392 a 1.9560169,1.9560169 0 0 1 -1.83298,2.06895 1.9560169,1.9560169 0 0 1 -2.07173,-1.82983 1.9560169,1.9560169 0 0 1 1.82667,-2.07452 1.9560169,1.9560169 0 0 1 2.0773,1.82351"
       sodipodi:open="true"
       sodipodi:end="6.2174562"
       sodipodi:start="6.2235474"
       sodipodi:ry="1.9560169"
       sodipodi:rx="1.9560169"
       sodipodi:cy="124.87051"
       sodipodi:cx="112.00771"
       sodipodi:type="arc"
       id="path855-3"
       style="opacity:1;fill:#ff0000;fill-opacity:1;stroke:#000000;stroke-width:0.5;stroke-linejoin:bevel;stroke-miterlimit:4;stroke-dasharray:none;stroke-dashoffset:0;stroke-opacity:1" />
    <path
       d="m 143.60935,126.607 a 1.9560169,1.9560169 0 0 1 -1.83298,2.06894 1.9560169,1.9560169 0 0 1 -2.07173,-1.82983 1.9560169,1.9560169 0 0 1 1.82667,-2.07452 1.9560169,1.9560169 0 0 1 2.0773,1.82351"
       sodipodi:open="true"
       sodipodi:end="6.2174562"
       sodipodi:start="6.2235474"
       sodipodi:ry="1.9560169"
       sodipodi:rx="1.9560169"
       sodipodi:cy="126.72358"
       sodipodi:cx="141.65681"
       sodipodi:type="arc"
       id="path855-6"
       style="opacity:1;fill:#ff0000;fill-opacity:1;stroke:#000000;stroke-width:0.5;stroke-linejoin:bevel;stroke-miterlimit:4;stroke-dasharray:none;stroke-dashoffset:0;stroke-opacity:1" />
    <path
       d="m 160.69876,119.81241 a 1.9560169,1.9560169 0 0 1 -1.83299,2.06894 1.9560169,1.9560169 0 0 1 -2.07173,-1.82983 1.9560169,1.9560169 0 0 1 1.82667,-2.07451 1.9560169,1.9560169 0 0 1 2.0773,1.82351"
       sodipodi:open="true"
       sodipodi:end="6.2174562"
       sodipodi:start="6.2235474"
       sodipodi:ry="1.9560169"
       sodipodi:rx="1.9560169"
       sodipodi:cy="119.92899"
       sodipodi:cx="158.74622"
       sodipodi:type="arc"
       id="path855-7"
       style="opacity:1;fill:#ff0000;fill-opacity:1;stroke:#000000;stroke-width:0.5;stroke-linejoin:bevel;stroke-miterlimit:4;stroke-dasharray:none;stroke-dashoffset:0;stroke-opacity:1" />
    <path
       d="m 132.90273,118.78293 a 1.9560169,1.9560169 0 0 1 -1.83298,2.06894 1.9560169,1.9560169 0 0 1 -2.07173,-1.82983 1.9560169,1.9560169 0 0 1 1.82667,-2.07451 1.9560169,1.9560169 0 0 1 2.0773,1.82351"
       sodipodi:open="true"
       sodipodi:end="6.2174562"
       sodipodi:start="6.2235474"
       sodipodi:ry="1.9560169"
       sodipodi:rx="1.9560169"
       sodipodi:cy="118.89951"
       sodipodi:cx="130.9502"
       sodipodi:type="arc"
       id="path855-5"
       style="opacity:1;fill:#ff0000;fill-opacity:1;stroke:#000000;stroke-width:0.5;stroke-linejoin:bevel;stroke-miterlimit:4;stroke-dasharray:none;stroke-dashoffset:0;stroke-opacity:1" />
    <path
       d="m 125.69635,129.07775 a 1.9560169,1.9560169 0 0 1 -1.83298,2.06895 1.9560169,1.9560169 0 0 1 -2.07173,-1.82983 1.9560169,1.9560169 0 0 1 1.82667,-2.07452 1.9560169,1.9560169 0 0 1 2.0773,1.82351"
       sodipodi:open="true"
       sodipodi:end="6.2174562"
       sodipodi:start="6.2235474"
       sodipodi:ry="1.9560169"
       sodipodi:rx="1.9560169"
       sodipodi:cy="129.19434"
       sodipodi:cx="123.74381"
       sodipodi:type="arc"
       id="path855-35"
       style="opacity:1;fill:#ff0000;fill-opacity:1;stroke:#000000;stroke-width:0.5;stroke-linejoin:bevel;stroke-miterlimit:4;stroke-dasharray:none;stroke-dashoffset:0;stroke-opacity:1" />
    <path
       d="m 89.458567,131.7544 a 1.9560169,1.9560169 0 0 1 -1.832983,2.06895 1.9560169,1.9560169 0 0 1 -2.071732,-1.82983 1.9560169,1.9560169 0 0 1 1.826673,-2.07452 1.9560169,1.9560169 0 0 1 2.077295,1.82351"
       sodipodi:open="true"
       sodipodi:end="6.2174562"
       sodipodi:start="6.2235474"
       sodipodi:ry="1.9560169"
       sodipodi:rx="1.9560169"
       sodipodi:cy="131.87099"
       sodipodi:cx="87.506027"
       sodipodi:type="arc"
       id="path855-62"
       style="opacity:1;fill:#ff0000;fill-opacity:1;stroke:#000000;stroke-width:0.5;stroke-linejoin:bevel;stroke-miterlimit:4;stroke-dasharray:none;stroke-dashoffset:0;stroke-opacity:1" />
    <path
       d="m 170.99359,126.81288 a 1.9560169,1.9560169 0 0 1 -1.83299,2.06895 1.9560169,1.9560169 0 0 1 -2.07173,-1.82983 1.9560169,1.9560169 0 0 1 1.82667,-2.07452 1.9560169,1.9560169 0 0 1 2.0773,1.82351"
       sodipodi:open="true"
       sodipodi:end="6.2174562"
       sodipodi:start="6.2235474"
       sodipodi:ry="1.9560169"
       sodipodi:rx="1.9560169"
       sodipodi:cy="126.92947"
       sodipodi:cx="169.04105"
       sodipodi:type="arc"
       id="path855-9"
       style="opacity:1;fill:#ff0000;fill-opacity:1;stroke:#000000;stroke-width:0.5;stroke-linejoin:bevel;stroke-miterlimit:4;stroke-dasharray:none;stroke-dashoffset:0;stroke-opacity:1" />
    <g
       id="g906"
       transform="translate(4.9760294e-6,-2.7796031)">
      <g
         id="g836"
         transform="matrix(2.5689155,0,0,2.5689155,123.46716,-42.153158)">
        <g
           id="content"
           transform="matrix(0.04090381,0,0,-0.04090381,-7.1581665,90.943522)"
           xml:space="preserve"
           stroke-miterlimit="10.433"
           font-style="normal"
           font-variant="normal"
           font-weight="normal"
           font-stretch="normal"
           font-size-adjust="none"
           letter-spacing="normal"
           word-spacing="normal"
           style="font-style:normal;font-variant:normal;font-weight:normal;font-stretch:normal;letter-spacing:normal;word-spacing:normal;text-anchor:start;fill:none;fill-opacity:1;fill-rule:evenodd;stroke:#000000;stroke-linecap:butt;stroke-linejoin:miter;stroke-miterlimit:10.43299961;stroke-dasharray:none;stroke-dashoffset:0;stroke-opacity:1"><path
             d="m 474.16,436.34 0.04,0.16 0.04,0.16 0.04,0.15 0.04,0.15 0.04,0.13 0.05,0.13 0.05,0.13 0.05,0.11 0.06,0.12 0.06,0.1 0.08,0.1 0.08,0.09 0.09,0.09 0.1,0.08 0.11,0.08 0.12,0.07 0.13,0.06 0.15,0.06 0.16,0.06 0.18,0.05 0.09,0.02 0.1,0.02 0.1,0.02 0.11,0.02 0.11,0.02 0.11,0.02 0.12,0.02 0.13,0.01 0.13,0.01 0.14,0.02 0.14,0.01 0.14,0.01 0.15,0.01 0.16,0.01 0.16,0.01 0.17,0.01 h 0.17 l 0.18,0.01 h 0.18 l 0.19,0.01 h 0.2 0.2 0.21 0.22 c 1.49,0 1.89,0 1.89,0.96 0,0.59 -0.54,0.59 -0.79,0.59 -1.66,0 -5.74,-0.16 -7.38,-0.16 -1.5,0 -5.14,0.16 -6.62,0.16 -0.36,0 -0.96,0 -0.96,-1 0,-0.55 0.46,-0.55 1.39,-0.55 0.11,0 1.05,0 1.91,-0.09 0.89,-0.11 1.34,-0.16 1.34,-0.8 0,-0.2 -0.06,-0.36 -0.2,-0.95 l -6.67,-26.75 c -0.5,-1.95 -0.61,-2.34 -4.55,-2.34 -0.84,0 -1.34,0 -1.34,-1 0,-0.55 0.45,-0.55 1.34,-0.55 h 23.08 c 1.19,0 1.23,0 1.55,0.84 l 3.92,10.77 c 0.2,0.55 0.2,0.64 0.2,0.7 0,0.19 -0.14,0.55 -0.59,0.55 -0.46,0 -0.5,-0.25 -0.85,-1.05 -1.7,-4.59 -3.89,-10.26 -12.51,-10.26 h -4.67 c -0.71,0 -0.8,0 -1.1,0.04 -0.5,0.05 -0.65,0.1 -0.65,0.5 0,0.14 0,0.25 0.25,1.14 z"
             id="path833"
             inkscape:connector-curvature="0"
             style="fill:#000000;stroke-width:0" /></g>      </g>
      <path
         inkscape:connector-curvature="0"
         id="path878"
         d="m 124.48016,144.84039 v 4.32382"
         style="fill:none;fill-rule:evenodd;stroke:#000000;stroke-width:0.26458332px;stroke-linecap:butt;stroke-linejoin:miter;stroke-opacity:1" />
      <path
         inkscape:connector-curvature="0"
         id="path878-0"
         d="m 184.97688,144.84039 v 4.32382"
         style="fill:none;fill-rule:evenodd;stroke:#000000;stroke-width:0.26458332px;stroke-linecap:butt;stroke-linejoin:miter;stroke-opacity:1" />
      <path
         inkscape:connector-curvature="0"
         id="path895"
         d="m 124.38473,147.0023 h 27.59013"
         style="fill:none;fill-rule:evenodd;stroke:#000000;stroke-width:0.26458332px;stroke-linecap:butt;stroke-linejoin:miter;stroke-opacity:1" />
      <path
         inkscape:connector-curvature="0"
         id="path897"
         d="M 184.91831,147.0023 H 157.22522"
         style="fill:none;fill-rule:evenodd;stroke:#000000;stroke-width:0.26458332px;stroke-linecap:butt;stroke-linejoin:miter;stroke-opacity:1" />
    </g>
  </g>
</svg>
