<?xml version="1.0" encoding="UTF-8" standalone="no"?>
<!-- Created with Inkscape (http://www.inkscape.org/) -->

<svg
   xmlns:dc="http://purl.org/dc/elements/1.1/"
   xmlns:cc="http://creativecommons.org/ns#"
   xmlns:rdf="http://www.w3.org/1999/02/22-rdf-syntax-ns#"
   xmlns:svg="http://www.w3.org/2000/svg"
   xmlns="http://www.w3.org/2000/svg"
   xmlns:sodipodi="http://sodipodi.sourceforge.net/DTD/sodipodi-0.dtd"
   xmlns:inkscape="http://www.inkscape.org/namespaces/inkscape"
   width="182.28662mm"
   height="188.30774mm"
   viewBox="0 0 182.28662 188.30774"
   version="1.1"
   id="svg8"
   inkscape:version="0.92.3 (2405546, 2018-03-11)"
   sodipodi:docname="EnergyLevels.svg">
  <sodipodi:namedview
     id="base"
     pagecolor="#ffffff"
     bordercolor="#666666"
     borderopacity="1.0"
     inkscape:pageopacity="0.0"
     inkscape:pageshadow="2"
     inkscape:zoom="0.7"
     inkscape:cx="348.99818"
     inkscape:cy="362.14856"
     inkscape:document-units="mm"
     inkscape:current-layer="layer1"
     showgrid="false"
     inkscape:window-width="1920"
     inkscape:window-height="1054"
     inkscape:window-x="1920"
     inkscape:window-y="0"
     inkscape:window-maximized="1"
     inkscape:snap-global="false"
     fit-margin-top="0"
     fit-margin-left="0"
     fit-margin-right="0"
     fit-margin-bottom="0" />
  <defs
     id="defs2">
    <marker
       inkscape:isstock="true"
       style="overflow:visible"
       id="Arrow1Mend"
       refX="0"
       refY="0"
       orient="auto"
       inkscape:stockid="Arrow1Mend">
      <path
         inkscape:connector-curvature="0"
         transform="matrix(-0.4,0,0,-0.4,-4,0)"
         style="fill:#000000;fill-opacity:1;fill-rule:evenodd;stroke:#000000;stroke-width:1.00000003pt;stroke-opacity:1"
         d="M 0,0 5,-5 -12.5,0 5,5 Z"
         id="path826" />
    </marker>
    <marker
       inkscape:stockid="Arrow2Lend"
       orient="auto"
       refY="0"
       refX="0"
       id="Arrow2Lend"
       style="overflow:visible"
       inkscape:isstock="true">
      <path
         inkscape:connector-curvature="0"
         id="path838"
         style="fill:#000000;fill-opacity:1;fill-rule:evenodd;stroke:#000000;stroke-width:0.625;stroke-linejoin:round;stroke-opacity:1"
         d="M 8.7185878,4.0337352 -2.2072895,0.01601326 8.7185884,-4.0017078 c -1.7454984,2.3720609 -1.7354408,5.6174519 -6e-7,8.035443 z"
         transform="matrix(-1.1,0,0,-1.1,-1.1,0)" />
    </marker>
    <marker
       inkscape:stockid="Arrow1Lend"
       orient="auto"
       refY="0"
       refX="0"
       id="Arrow1Lend"
       style="overflow:visible"
       inkscape:isstock="true">
      <path
         inkscape:connector-curvature="0"
         id="path820"
         d="M 0,0 5,-5 -12.5,0 5,5 Z"
         style="fill:#000000;fill-opacity:1;fill-rule:evenodd;stroke:#000000;stroke-width:1.00000003pt;stroke-opacity:1"
         transform="matrix(-0.8,0,0,-0.8,-10,0)" />
    </marker>
    <marker
       inkscape:stockid="Arrow2Lend"
       orient="auto"
       refY="0"
       refX="0"
       id="Arrow2Lend-9"
       style="overflow:visible"
       inkscape:isstock="true">
      <path
         inkscape:connector-curvature="0"
         id="path838-3"
         style="fill:#000000;fill-opacity:1;fill-rule:evenodd;stroke:#000000;stroke-width:0.625;stroke-linejoin:round;stroke-opacity:1"
         d="M 8.7185878,4.0337352 -2.2072895,0.01601326 8.7185884,-4.0017078 c -1.7454984,2.3720609 -1.7354408,5.6174519 -6e-7,8.035443 z"
         transform="matrix(-1.1,0,0,-1.1,-1.1,0)" />
    </marker>
  </defs>
  <metadata
     id="metadata5">
    <rdf:RDF>
      <cc:Work
         rdf:about="">
        <dc:format>image/svg+xml</dc:format>
        <dc:type
           rdf:resource="http://purl.org/dc/dcmitype/StillImage" />
        <dc:title></dc:title>
      </cc:Work>
    </rdf:RDF>
  </metadata>
  <g
     transform="translate(-4.0892754,-29.317261)"
     inkscape:label="Layer 1"
     inkscape:groupmode="layer"
     id="layer1">
    <path
       style="fill:none;fill-rule:evenodd;stroke:#000000;stroke-width:1;stroke-linecap:butt;stroke-linejoin:miter;stroke-miterlimit:4;stroke-dasharray:none;stroke-opacity:1"
       d="M 37.041666,217.625 V 30.904762"
       id="path815"
       inkscape:connector-curvature="0" />
    <path
       d="m 20.65667,188.49926 0.003,-0.006 0.003,-0.009 0.006,-0.015 0.006,-0.015 0.006,-0.015 0.006,-0.015 0.006,-0.015 0.006,-0.015 0.003,-0.015 0.003,-0.009 0.003,-0.006 0.003,-0.006 0.003,-0.009 v -0.006 l 0.003,-0.006 0.003,-0.006 v -0.006 l 0.003,-0.006 v -0.006 l 0.003,-0.003 v -0.006 -0.006 -0.003 -0.003 l 0.003,-0.003 c 0,-0.015 0,-0.165 -0.18,-0.165 -0.135,0 -0.165,0.09 -0.192,0.183 -0.975,2.214 -1.524,3.21 -4.083,3.21 h -2.178 c -0.213,0 -0.24,0 -0.33,-0.012 -0.15,-0.015 -0.195,-0.03 -0.195,-0.15 0,-0.042 0,-0.075 0.075,-0.342 l 1.017,-4.083 h 1.479 c 1.272,0 1.272,0.312 1.272,0.687 0,0.105 0,0.288 -0.108,0.732 -0.027,0.075 -0.042,0.123 -0.042,0.165 0,0.075 0.057,0.165 0.192,0.165 0.123,0 0.165,-0.075 0.225,-0.297 l 0.852,-3.501 c 0,-0.09 -0.075,-0.165 -0.183,-0.165 -0.129,0 -0.162,0.09 -0.204,0.273 -0.315,1.134 -0.588,1.476 -1.962,1.476 h -1.404 l 0.9,-3.6 c 0.129,-0.525 0.15,-0.582 0.804,-0.582 h 2.106 c 1.824,0 2.274,0.432 2.274,1.659 0,0.357 0,0.387 -0.06,0.792 0,0.09 -0.015,0.195 -0.015,0.27 0,0.075 0.045,0.177 0.177,0.177 0.168,0 0.183,-0.09 0.213,-0.375 l 0.3,-2.583 c 0.042,-0.402 -0.03,-0.402 -0.405,-0.402 h -7.545 c -0.3,0 -0.45,0 -0.45,0.3 0,0.162 0.135,0.162 0.417,0.162 0.552,0 0.969,0 0.969,0.267 0,0.063 0,0.09 -0.075,0.363 l -1.968,7.902 c -0.15,0.585 -0.183,0.702 -1.365,0.702 -0.252,0 -0.417,0 -0.417,0.288 0,0.177 0.135,0.177 0.417,0.177 h 7.758 c 0.348,0 0.36,-0.015 0.465,-0.252 z"
       id="path1974"
       inkscape:connector-curvature="0"
       style="font-style:normal;font-variant:normal;font-weight:normal;font-stretch:normal;letter-spacing:normal;word-spacing:normal;text-anchor:start;fill:#000000;fill-opacity:1;fill-rule:evenodd;stroke:#000000;stroke-width:0;stroke-linecap:butt;stroke-linejoin:miter;stroke-miterlimit:10.43299961;stroke-dasharray:none;stroke-dashoffset:0;stroke-opacity:1" />
    <path
       d="m 26.48267,190.88126 v -0.213 l -0.006,-0.204 -0.009,-0.198 -0.012,-0.192 -0.018,-0.186 -0.024,-0.18 -0.027,-0.171 -0.03,-0.168 -0.039,-0.165 -0.045,-0.159 -0.051,-0.153 -0.057,-0.15 -0.063,-0.147 -0.072,-0.144 -0.078,-0.141 -0.042,-0.069 -0.045,-0.069 c -0.324,-0.483 -0.969,-0.9 -1.809,-0.9 v 0.294 c 0.567,0 1.11,0.342 1.299,0.951 0.168,0.564 0.177,1.317 0.177,2.229 0,0.771 0,1.545 -0.135,2.202 -0.213,0.951 -0.918,1.182 -1.341,1.182 v 0 c -0.477,0 -1.116,-0.282 -1.326,-1.14 -0.147,-0.615 -0.147,-1.473 -0.147,-2.244 0,-0.765 0,-1.563 0.156,-2.133 0.219,-0.825 0.891,-1.047 1.317,-1.047 v -0.294 c -2.424,0 -2.424,2.853 -2.424,3.609 0,0.75 0,3.543 2.424,3.543 2.427,0 2.427,-2.793 2.427,-3.543 z"
       id="path1976"
       inkscape:connector-curvature="0"
       style="font-style:normal;font-variant:normal;font-weight:normal;font-stretch:normal;letter-spacing:normal;word-spacing:normal;text-anchor:start;fill:#000000;fill-opacity:1;fill-rule:evenodd;stroke:#000000;stroke-width:0;stroke-linecap:butt;stroke-linejoin:miter;stroke-miterlimit:10.43299961;stroke-dasharray:none;stroke-dashoffset:0;stroke-opacity:1" />
    <path
       id="path2013"
       d="m 20.88167,147.29986 0.003,-0.006 0.003,-0.009 0.006,-0.015 0.006,-0.015 0.006,-0.015 0.006,-0.015 0.006,-0.015 0.006,-0.015 0.003,-0.015 0.003,-0.009 0.003,-0.006 0.003,-0.006 0.003,-0.009 v -0.006 l 0.003,-0.006 0.003,-0.006 v -0.006 l 0.003,-0.006 v -0.006 l 0.003,-0.003 v -0.006 -0.006 -0.003 -0.003 l 0.003,-0.003 c 0,-0.015 0,-0.165 -0.18,-0.165 -0.135,0 -0.165,0.09 -0.192,0.183 -0.975,2.214 -1.524,3.21 -4.083,3.21 h -2.178 c -0.213,0 -0.24,0 -0.33,-0.012 -0.15,-0.015 -0.195,-0.03 -0.195,-0.15 0,-0.042 0,-0.075 0.075,-0.342 l 1.017,-4.083 h 1.479 c 1.272,0 1.272,0.312 1.272,0.687 0,0.105 0,0.288 -0.108,0.732 -0.027,0.075 -0.042,0.123 -0.042,0.165 0,0.075 0.057,0.165 0.192,0.165 0.123,0 0.165,-0.075 0.225,-0.297 l 0.852,-3.501 c 0,-0.09 -0.075,-0.165 -0.183,-0.165 -0.129,0 -0.162,0.09 -0.204,0.273 -0.315,1.134 -0.588,1.476 -1.962,1.476 h -1.404 l 0.9,-3.6 c 0.129,-0.525 0.15,-0.582 0.804,-0.582 h 2.106 c 1.824,0 2.274,0.432 2.274,1.659 0,0.357 0,0.387 -0.06,0.792 0,0.09 -0.015,0.195 -0.015,0.27 0,0.075 0.045,0.177 0.177,0.177 0.168,0 0.183,-0.09 0.213,-0.375 l 0.3,-2.583 c 0.042,-0.402 -0.03,-0.402 -0.405,-0.402 h -7.545 c -0.3,0 -0.45,0 -0.45,0.3 0,0.162 0.135,0.162 0.417,0.162 0.552,0 0.969,0 0.969,0.267 0,0.063 0,0.09 -0.075,0.363 l -1.968,7.902 c -0.15,0.585 -0.183,0.702 -1.365,0.702 -0.252,0 -0.417,0 -0.417,0.288 0,0.177 0.135,0.177 0.417,0.177 h 7.758 c 0.348,0 0.36,-0.015 0.465,-0.252 z"
       inkscape:connector-curvature="0"
       style="font-style:normal;font-variant:normal;font-weight:normal;font-stretch:normal;letter-spacing:normal;word-spacing:normal;text-anchor:start;fill:#000000;fill-opacity:1;fill-rule:evenodd;stroke:#000000;stroke-width:0;stroke-linecap:butt;stroke-linejoin:miter;stroke-miterlimit:10.43299961;stroke-dasharray:none;stroke-dashoffset:0;stroke-opacity:1" />
    <path
       id="path2015"
       d="m 24.81467,146.36686 v -0.012 -0.012 -0.015 -0.012 -0.009 -0.012 -0.012 -0.009 l -0.003,-0.012 v -0.009 -0.009 -0.009 -0.009 l -0.003,-0.009 v -0.009 l -0.003,-0.006 v -0.009 -0.006 l -0.003,-0.009 v -0.006 l -0.006,-0.012 -0.003,-0.012 -0.006,-0.009 -0.006,-0.009 -0.006,-0.009 -0.006,-0.009 -0.009,-0.006 -0.009,-0.006 -0.012,-0.006 -0.009,-0.003 -0.012,-0.003 -0.015,-0.006 h -0.006 -0.009 l -0.006,-0.003 h -0.009 l -0.009,-0.003 h -0.006 -0.009 -0.009 -0.012 l -0.009,-0.003 h -0.009 -0.012 -0.012 -0.009 -0.012 -0.012 -0.012 -0.015 -0.012 -0.015 c -0.669,0.66 -1.617,0.669 -2.046,0.669 v 0.375 c 0.252,0 0.942,0 1.512,-0.291 v 5.331 c 0,0.348 0,0.483 -1.044,0.483 h -0.393 v 0.375 c 0.186,-0.009 1.47,-0.042 1.86,-0.042 0.324,0 1.641,0.033 1.869,0.042 v -0.375 h -0.399 c -1.044,0 -1.044,-0.135 -1.044,-0.483 z"
       inkscape:connector-curvature="0"
       style="font-style:normal;font-variant:normal;font-weight:normal;font-stretch:normal;letter-spacing:normal;word-spacing:normal;text-anchor:start;fill:#000000;fill-opacity:1;fill-rule:evenodd;stroke:#000000;stroke-width:0;stroke-linecap:butt;stroke-linejoin:miter;stroke-miterlimit:10.43299961;stroke-dasharray:none;stroke-dashoffset:0;stroke-opacity:1" />
    <path
       d="m 20.71517,114.03795 0.003,-0.006 0.003,-0.009 0.006,-0.015 0.006,-0.015 0.006,-0.015 0.006,-0.015 0.006,-0.015 0.006,-0.015 0.003,-0.015 0.003,-0.009 0.003,-0.006 0.003,-0.006 0.003,-0.009 v -0.006 l 0.003,-0.006 0.003,-0.006 v -0.006 l 0.003,-0.006 v -0.006 l 0.003,-0.003 v -0.006 -0.006 -0.003 -0.003 l 0.003,-0.003 c 0,-0.015 0,-0.165 -0.18,-0.165 -0.135,0 -0.165,0.09 -0.192,0.183 -0.975,2.214 -1.524,3.21 -4.083,3.21 h -2.178 c -0.213,0 -0.24,0 -0.33,-0.012 -0.15,-0.015 -0.195,-0.03 -0.195,-0.15 0,-0.042 0,-0.075 0.075,-0.342 l 1.017,-4.083 h 1.479 c 1.272,0 1.272,0.312 1.272,0.687 0,0.105 0,0.288 -0.108,0.732 -0.027,0.075 -0.042,0.123 -0.042,0.165 0,0.075 0.057,0.165 0.192,0.165 0.123,0 0.165,-0.075 0.225,-0.297 l 0.852,-3.501 c 0,-0.09 -0.075,-0.165 -0.183,-0.165 -0.129,0 -0.162,0.09 -0.204,0.273 -0.315,1.134 -0.588,1.476 -1.962,1.476 h -1.404 l 0.9,-3.6 c 0.129,-0.525 0.15,-0.582 0.804,-0.582 h 2.106 c 1.824,0 2.274,0.432 2.274,1.659 0,0.357 0,0.387 -0.06,0.792 0,0.09 -0.015,0.195 -0.015,0.27 0,0.075 0.045,0.177 0.177,0.177 0.168,0 0.183,-0.09 0.213,-0.375 l 0.3,-2.583 c 0.042,-0.402 -0.03,-0.402 -0.405,-0.402 h -7.545 c -0.3,0 -0.45,0 -0.45,0.3 0,0.162 0.135,0.162 0.417,0.162 0.552,0 0.969,0 0.969,0.267 0,0.063 0,0.09 -0.075,0.363 l -1.968,7.902 c -0.15,0.585 -0.183,0.702 -1.365,0.702 -0.252,0 -0.417,0 -0.417,0.288 0,0.177 0.135,0.177 0.417,0.177 h 7.758 c 0.348,0 0.36,-0.015 0.465,-0.252 z"
       id="path2061"
       inkscape:connector-curvature="0"
       style="font-style:normal;font-variant:normal;font-weight:normal;font-stretch:normal;letter-spacing:normal;word-spacing:normal;text-anchor:start;fill:#000000;fill-opacity:1;fill-rule:evenodd;stroke:#000000;stroke-width:0;stroke-linecap:butt;stroke-linejoin:miter;stroke-miterlimit:10.43299961;stroke-dasharray:none;stroke-dashoffset:0;stroke-opacity:1" />
    <path
       d="m 26.42417,117.84795 h -0.357 c -0.027,0.231 -0.135,0.849 -0.27,0.954 -0.081,0.06 -0.885,0.06 -1.032,0.06 h -1.926 c 1.098,-0.969 1.461,-1.26 2.091,-1.752 0.774,-0.621 1.494,-1.266 1.494,-2.262 0,-1.263 -1.107,-2.037 -2.445,-2.037 -1.296,0 -2.175,0.909 -2.175,1.869 0,0.534 0.45,0.588 0.558,0.588 0.246,0 0.552,-0.18 0.552,-0.555 0,-0.186 -0.075,-0.552 -0.618,-0.552 0.321,-0.741 1.035,-0.972 1.527,-0.972 1.044,0 1.59,0.813 1.59,1.659 0,0.912 -0.648,1.632 -0.984,2.007 l -2.517,2.49 c -0.108,0.093 -0.108,0.117 -0.108,0.408 h 4.308 z"
       id="path2063"
       inkscape:connector-curvature="0"
       style="font-style:normal;font-variant:normal;font-weight:normal;font-stretch:normal;letter-spacing:normal;word-spacing:normal;text-anchor:start;fill:#000000;fill-opacity:1;fill-rule:evenodd;stroke:#000000;stroke-width:0;stroke-linecap:butt;stroke-linejoin:miter;stroke-miterlimit:10.43299961;stroke-dasharray:none;stroke-dashoffset:0;stroke-opacity:1" />
    <path
       id="path2117"
       d="m 18.56117,87.667095 h 0.039 l 0.042,-0.003 0.039,-0.006 0.039,-0.006 0.036,-0.009 0.039,-0.012 0.036,-0.012 0.036,-0.015 0.036,-0.015 0.033,-0.018 0.033,-0.018 0.033,-0.021 0.03,-0.021 0.03,-0.024 0.03,-0.027 0.027,-0.024 0.027,-0.03 0.024,-0.027 0.024,-0.03 0.021,-0.03 0.021,-0.033 0.021,-0.033 0.018,-0.036 0.015,-0.033 0.015,-0.036 0.012,-0.039 0.012,-0.036 0.009,-0.039 0.006,-0.039 0.006,-0.039 0.003,-0.039 v -0.042 c 0,-0.432 -0.36,-0.792 -0.792,-0.792 -0.432,0 -0.792,0.36 -0.792,0.792 0,0.435 0.36,0.792 0.792,0.792 z"
       inkscape:connector-curvature="0"
       style="font-style:normal;font-variant:normal;font-weight:normal;font-stretch:normal;letter-spacing:normal;word-spacing:normal;text-anchor:start;fill:#000000;fill-opacity:1;fill-rule:evenodd;stroke:#000000;stroke-width:0;stroke-linecap:butt;stroke-linejoin:miter;stroke-miterlimit:10.43299961;stroke-dasharray:none;stroke-dashoffset:0;stroke-opacity:1" />
    <path
       id="path2119"
       d="m 18.56117,94.291095 h 0.039 l 0.042,-0.003 0.039,-0.006 0.039,-0.006 0.036,-0.009 0.039,-0.012 0.036,-0.012 0.036,-0.015 0.036,-0.015 0.033,-0.018 0.033,-0.018 0.033,-0.021 0.03,-0.024 0.03,-0.021 0.03,-0.027 0.027,-0.027 0.027,-0.027 0.024,-0.027 0.024,-0.03 0.021,-0.033 0.021,-0.03 0.021,-0.033 0.018,-0.036 0.015,-0.033 0.015,-0.036 0.012,-0.039 0.012,-0.036 0.009,-0.039 0.006,-0.039 0.006,-0.039 0.003,-0.039 v -0.042 c 0,-0.432 -0.36,-0.792 -0.792,-0.792 -0.432,0 -0.792,0.36 -0.792,0.792 0,0.435 0.36,0.792 0.792,0.792 z"
       inkscape:connector-curvature="0"
       style="font-style:normal;font-variant:normal;font-weight:normal;font-stretch:normal;letter-spacing:normal;word-spacing:normal;text-anchor:start;fill:#000000;fill-opacity:1;fill-rule:evenodd;stroke:#000000;stroke-width:0;stroke-linecap:butt;stroke-linejoin:miter;stroke-miterlimit:10.43299961;stroke-dasharray:none;stroke-dashoffset:0;stroke-opacity:1" />
    <path
       id="path2121"
       d="m 18.56117,100.9121 h 0.039 l 0.042,-0.003 0.039,-0.006 0.039,-0.006 0.036,-0.009 0.039,-0.012 0.036,-0.012 0.036,-0.012 0.036,-0.018 0.033,-0.018 0.033,-0.018 0.033,-0.021 0.03,-0.021 0.03,-0.024 0.03,-0.024 0.027,-0.027 0.027,-0.027 0.024,-0.03 0.024,-0.03 0.021,-0.03 0.021,-0.033 0.021,-0.033 0.018,-0.033 0.015,-0.036 0.015,-0.036 0.012,-0.036 0.012,-0.039 0.009,-0.039 0.006,-0.039 0.006,-0.039 0.003,-0.039 v -0.042 c 0,-0.429005 -0.36,-0.792005 -0.792,-0.792005 -0.432,0 -0.792,0.363 -0.792,0.792005 0,0.43799 0.36,0.792 0.792,0.792 z"
       inkscape:connector-curvature="0"
       style="font-style:normal;font-variant:normal;font-weight:normal;font-stretch:normal;letter-spacing:normal;word-spacing:normal;text-anchor:start;fill:#000000;fill-opacity:1;fill-rule:evenodd;stroke:#000000;stroke-width:0;stroke-linecap:butt;stroke-linejoin:miter;stroke-miterlimit:10.43299961;stroke-dasharray:none;stroke-dashoffset:0;stroke-opacity:1" />
    <path
       style="fill:none;fill-rule:evenodd;stroke:#ff0000;stroke-width:2;stroke-linecap:butt;stroke-linejoin:miter;stroke-miterlimit:4;stroke-dasharray:none;stroke-opacity:1"
       d="M 45.150538,188.12276 H 28.897563"
       id="path2323"
       inkscape:connector-curvature="0" />
    <path
       style="fill:none;fill-rule:evenodd;stroke:#ff0000;stroke-width:2;stroke-linecap:butt;stroke-linejoin:miter;stroke-miterlimit:4;stroke-dasharray:none;stroke-opacity:1"
       d="M 45.150538,146.81836 H 28.897563"
       id="path2323-9"
       inkscape:connector-curvature="0" />
    <path
       style="fill:none;fill-rule:evenodd;stroke:#ff0000;stroke-width:2;stroke-linecap:butt;stroke-linejoin:miter;stroke-miterlimit:4;stroke-dasharray:none;stroke-opacity:1"
       d="M 45.150538,113.55645 H 28.897563"
       id="path2323-2"
       inkscape:connector-curvature="0" />
    <path
       style="fill:none;fill-rule:evenodd;stroke:#000000;stroke-width:1;stroke-linecap:butt;stroke-linejoin:miter;stroke-miterlimit:4;stroke-dasharray:none;stroke-opacity:1"
       d="M 154.91228,217.625 V 30.904761"
       id="path815-7"
       inkscape:connector-curvature="0" />
    <path
       d="m 173.9991,203.80688 0.003,-0.006 0.003,-0.009 0.006,-0.015 0.006,-0.015 0.006,-0.015 0.006,-0.015 0.006,-0.015 0.006,-0.015 0.003,-0.015 0.003,-0.009 0.003,-0.006 0.003,-0.006 0.003,-0.009 v -0.006 l 0.003,-0.006 0.003,-0.006 v -0.006 l 0.003,-0.006 v -0.006 l 0.003,-0.003 v -0.006 -0.006 -0.003 -0.003 l 0.003,-0.003 c 0,-0.015 0,-0.165 -0.18,-0.165 -0.135,0 -0.165,0.09 -0.192,0.183 -0.975,2.214 -1.524,3.21 -4.083,3.21 h -2.178 c -0.213,0 -0.24,0 -0.33,-0.012 -0.15,-0.015 -0.195,-0.03 -0.195,-0.15 0,-0.042 0,-0.075 0.075,-0.342 l 1.017,-4.083 h 1.479 c 1.272,0 1.272,0.312 1.272,0.687 0,0.105 0,0.288 -0.108,0.732 -0.027,0.075 -0.042,0.123 -0.042,0.165 0,0.075 0.057,0.165 0.192,0.165 0.123,0 0.165,-0.075 0.225,-0.297 l 0.852,-3.501 c 0,-0.09 -0.075,-0.165 -0.183,-0.165 -0.129,0 -0.162,0.09 -0.204,0.273 -0.315,1.134 -0.588,1.476 -1.962,1.476 h -1.404 l 0.9,-3.6 c 0.129,-0.525 0.15,-0.582 0.804,-0.582 h 2.106 c 1.824,0 2.274,0.432 2.274,1.659 0,0.357 0,0.387 -0.06,0.792 0,0.09 -0.015,0.195 -0.015,0.27 0,0.075 0.045,0.177 0.177,0.177 0.168,0 0.183,-0.09 0.213,-0.375 l 0.3,-2.583 c 0.042,-0.402 -0.03,-0.402 -0.405,-0.402 h -7.545 c -0.3,0 -0.45,0 -0.45,0.3 0,0.162 0.135,0.162 0.417,0.162 0.552,0 0.969,0 0.969,0.267 0,0.063 0,0.09 -0.075,0.363 l -1.968,7.902 c -0.15,0.585 -0.183,0.702 -1.365,0.702 -0.252,0 -0.417,0 -0.417,0.288 0,0.177 0.135,0.177 0.417,0.177 h 7.758 c 0.348,0 0.36,-0.015 0.465,-0.252 z"
       id="path1974-1"
       inkscape:connector-curvature="0"
       style="font-style:normal;font-variant:normal;font-weight:normal;font-stretch:normal;letter-spacing:normal;word-spacing:normal;text-anchor:start;fill:#000000;fill-opacity:1;fill-rule:evenodd;stroke:#000000;stroke-width:0;stroke-linecap:butt;stroke-linejoin:miter;stroke-miterlimit:10.43299961;stroke-dasharray:none;stroke-dashoffset:0;stroke-opacity:1" />
    <path
       d="m 179.8251,206.18888 v -0.213 l -0.006,-0.204 -0.009,-0.198 -0.012,-0.192 -0.018,-0.186 -0.024,-0.18 -0.027,-0.171 -0.03,-0.168 -0.039,-0.165 -0.045,-0.159 -0.051,-0.153 -0.057,-0.15 -0.063,-0.147 -0.072,-0.144 -0.078,-0.141 -0.042,-0.069 -0.045,-0.069 c -0.324,-0.483 -0.969,-0.9 -1.809,-0.9 v 0.294 c 0.567,0 1.11,0.342 1.299,0.951 0.168,0.564 0.177,1.317 0.177,2.229 0,0.771 0,1.545 -0.135,2.202 -0.213,0.951 -0.918,1.182 -1.341,1.182 v 0 c -0.477,0 -1.116,-0.282 -1.326,-1.14 -0.147,-0.615 -0.147,-1.473 -0.147,-2.244 0,-0.765 0,-1.563 0.156,-2.133 0.219,-0.825 0.891,-1.047 1.317,-1.047 v -0.294 c -2.424,0 -2.424,2.853 -2.424,3.609 0,0.75 0,3.543 2.424,3.543 2.427,0 2.427,-2.793 2.427,-3.543 z"
       id="path1976-7"
       inkscape:connector-curvature="0"
       style="font-style:normal;font-variant:normal;font-weight:normal;font-stretch:normal;letter-spacing:normal;word-spacing:normal;text-anchor:start;fill:#000000;fill-opacity:1;fill-rule:evenodd;stroke:#000000;stroke-width:0;stroke-linecap:butt;stroke-linejoin:miter;stroke-miterlimit:10.43299961;stroke-dasharray:none;stroke-dashoffset:0;stroke-opacity:1" />
    <path
       id="path2013-1"
       d="m 174.2241,179.61641 0.003,-0.006 0.003,-0.009 0.006,-0.015 0.006,-0.015 0.006,-0.015 0.006,-0.015 0.006,-0.015 0.006,-0.015 0.003,-0.015 0.003,-0.009 0.003,-0.006 0.003,-0.006 0.003,-0.009 v -0.006 l 0.003,-0.006 0.003,-0.006 v -0.006 l 0.003,-0.006 v -0.006 l 0.003,-0.003 v -0.006 -0.006 -0.003 -0.003 l 0.003,-0.003 c 0,-0.015 0,-0.165 -0.18,-0.165 -0.135,0 -0.165,0.09 -0.192,0.183 -0.975,2.214 -1.524,3.21 -4.083,3.21 h -2.178 c -0.213,0 -0.24,0 -0.33,-0.012 -0.15,-0.015 -0.195,-0.03 -0.195,-0.15 0,-0.042 0,-0.075 0.075,-0.342 l 1.017,-4.083 h 1.479 c 1.272,0 1.272,0.312 1.272,0.687 0,0.105 0,0.288 -0.108,0.732 -0.027,0.075 -0.042,0.123 -0.042,0.165 0,0.075 0.057,0.165 0.192,0.165 0.123,0 0.165,-0.075 0.225,-0.297 l 0.852,-3.501 c 0,-0.09 -0.075,-0.165 -0.183,-0.165 -0.129,0 -0.162,0.09 -0.204,0.273 -0.315,1.134 -0.588,1.476 -1.962,1.476 h -1.404 l 0.9,-3.6 c 0.129,-0.525 0.15,-0.582 0.804,-0.582 h 2.106 c 1.824,0 2.274,0.432 2.274,1.659 0,0.357 0,0.387 -0.06,0.792 0,0.09 -0.015,0.195 -0.015,0.27 0,0.075 0.045,0.177 0.177,0.177 0.168,0 0.183,-0.09 0.213,-0.375 l 0.3,-2.583 c 0.042,-0.402 -0.03,-0.402 -0.405,-0.402 h -7.545 c -0.3,0 -0.45,0 -0.45,0.3 0,0.162 0.135,0.162 0.417,0.162 0.552,0 0.969,0 0.969,0.267 0,0.063 0,0.09 -0.075,0.363 l -1.968,7.902 c -0.15,0.585 -0.183,0.702 -1.365,0.702 -0.252,0 -0.417,0 -0.417,0.288 0,0.177 0.135,0.177 0.417,0.177 h 7.758 c 0.348,0 0.36,-0.015 0.465,-0.252 z"
       inkscape:connector-curvature="0"
       style="font-style:normal;font-variant:normal;font-weight:normal;font-stretch:normal;letter-spacing:normal;word-spacing:normal;text-anchor:start;fill:#000000;fill-opacity:1;fill-rule:evenodd;stroke:#000000;stroke-width:0;stroke-linecap:butt;stroke-linejoin:miter;stroke-miterlimit:10.43299961;stroke-dasharray:none;stroke-dashoffset:0;stroke-opacity:1" />
    <path
       id="path2015-4"
       d="m 178.1571,178.68341 v -0.012 -0.012 -0.015 -0.012 -0.009 -0.012 -0.012 -0.009 l -0.003,-0.012 v -0.009 -0.009 -0.009 -0.009 l -0.003,-0.009 v -0.009 l -0.003,-0.006 v -0.009 -0.006 l -0.003,-0.009 v -0.006 l -0.006,-0.012 -0.003,-0.012 -0.006,-0.009 -0.006,-0.009 -0.006,-0.009 -0.006,-0.009 -0.009,-0.006 -0.009,-0.006 -0.012,-0.006 -0.009,-0.003 -0.012,-0.003 -0.015,-0.006 h -0.006 -0.009 l -0.006,-0.003 h -0.009 l -0.009,-0.003 h -0.006 -0.009 -0.009 -0.012 l -0.009,-0.003 h -0.009 -0.012 -0.012 -0.009 -0.012 -0.012 -0.012 -0.015 -0.012 -0.015 c -0.669,0.66 -1.617,0.669 -2.046,0.669 v 0.375 c 0.252,0 0.942,0 1.512,-0.291 v 5.331 c 0,0.348 0,0.483 -1.044,0.483 h -0.393 v 0.375 c 0.186,-0.009 1.47,-0.042 1.86,-0.042 0.324,0 1.641,0.033 1.869,0.042 v -0.375 h -0.399 c -1.044,0 -1.044,-0.135 -1.044,-0.483 z"
       inkscape:connector-curvature="0"
       style="font-style:normal;font-variant:normal;font-weight:normal;font-stretch:normal;letter-spacing:normal;word-spacing:normal;text-anchor:start;fill:#000000;fill-opacity:1;fill-rule:evenodd;stroke:#000000;stroke-width:0;stroke-linecap:butt;stroke-linejoin:miter;stroke-miterlimit:10.43299961;stroke-dasharray:none;stroke-dashoffset:0;stroke-opacity:1" />
    <path
       d="m 174.0576,130.4795 0.003,-0.006 0.003,-0.009 0.006,-0.015 0.006,-0.015 0.006,-0.015 0.006,-0.015 0.006,-0.015 0.006,-0.015 0.003,-0.015 0.003,-0.009 0.003,-0.006 0.003,-0.006 0.003,-0.009 v -0.006 l 0.003,-0.006 0.003,-0.006 v -0.006 l 0.003,-0.006 v -0.006 l 0.003,-0.003 v -0.006 -0.006 -0.003 -0.003 l 0.003,-0.003 c 0,-0.015 0,-0.165 -0.18,-0.165 -0.135,0 -0.165,0.09 -0.192,0.183 -0.975,2.214 -1.524,3.21 -4.083,3.21 h -2.178 c -0.213,0 -0.24,0 -0.33,-0.012 -0.15,-0.015 -0.195,-0.03 -0.195,-0.15 0,-0.042 0,-0.075 0.075,-0.342 l 1.017,-4.083 h 1.479 c 1.272,0 1.272,0.312 1.272,0.687 0,0.105 0,0.288 -0.108,0.732 -0.027,0.075 -0.042,0.123 -0.042,0.165 0,0.075 0.057,0.165 0.192,0.165 0.123,0 0.165,-0.075 0.225,-0.297 l 0.852,-3.501 c 0,-0.09 -0.075,-0.165 -0.183,-0.165 -0.129,0 -0.162,0.09 -0.204,0.273 -0.315,1.134 -0.588,1.476 -1.962,1.476 h -1.404 l 0.9,-3.6 c 0.129,-0.525 0.15,-0.582 0.804,-0.582 h 2.106 c 1.824,0 2.274,0.432 2.274,1.659 0,0.357 0,0.387 -0.06,0.792 0,0.09 -0.015,0.195 -0.015,0.27 0,0.075 0.045,0.177 0.177,0.177 0.168,0 0.183,-0.09 0.213,-0.375 l 0.3,-2.583 c 0.042,-0.402 -0.03,-0.402 -0.405,-0.402 h -7.545 c -0.3,0 -0.45,0 -0.45,0.3 0,0.162 0.135,0.162 0.417,0.162 0.552,0 0.969,0 0.969,0.267 0,0.063 0,0.09 -0.075,0.363 l -1.968,7.902 c -0.15,0.585 -0.183,0.702 -1.365,0.702 -0.252,0 -0.417,0 -0.417,0.288 0,0.177 0.135,0.177 0.417,0.177 h 7.758 c 0.348,0 0.36,-0.015 0.465,-0.252 z"
       id="path2061-4"
       inkscape:connector-curvature="0"
       style="font-style:normal;font-variant:normal;font-weight:normal;font-stretch:normal;letter-spacing:normal;word-spacing:normal;text-anchor:start;fill:#000000;fill-opacity:1;fill-rule:evenodd;stroke:#000000;stroke-width:0;stroke-linecap:butt;stroke-linejoin:miter;stroke-miterlimit:10.43299961;stroke-dasharray:none;stroke-dashoffset:0;stroke-opacity:1" />
    <path
       d="m 179.7666,134.2895 h -0.357 c -0.027,0.231 -0.135,0.849 -0.27,0.954 -0.081,0.06 -0.885,0.06 -1.032,0.06 h -1.926 c 1.098,-0.969 1.461,-1.26 2.091,-1.752 0.774,-0.621 1.494,-1.266 1.494,-2.262 0,-1.263 -1.107,-2.037 -2.445,-2.037 -1.296,0 -2.175,0.909 -2.175,1.869 0,0.534 0.45,0.588 0.558,0.588 0.246,0 0.552,-0.18 0.552,-0.555 0,-0.186 -0.075,-0.552 -0.618,-0.552 0.321,-0.741 1.035,-0.972 1.527,-0.972 1.044,0 1.59,0.813 1.59,1.659 0,0.912 -0.648,1.632 -0.984,2.007 l -2.517,2.49 c -0.108,0.093 -0.108,0.117 -0.108,0.408 h 4.308 z"
       id="path2063-2"
       inkscape:connector-curvature="0"
       style="font-style:normal;font-variant:normal;font-weight:normal;font-stretch:normal;letter-spacing:normal;word-spacing:normal;text-anchor:start;fill:#000000;fill-opacity:1;fill-rule:evenodd;stroke:#000000;stroke-width:0;stroke-linecap:butt;stroke-linejoin:miter;stroke-miterlimit:10.43299961;stroke-dasharray:none;stroke-dashoffset:0;stroke-opacity:1" />
    <path
       id="path2117-4"
       d="m 171.90361,98.21207 h 0.039 l 0.042,-0.003 0.039,-0.006 0.039,-0.006 0.036,-0.009 0.039,-0.012 0.036,-0.012 0.036,-0.015 0.036,-0.015 0.033,-0.018 0.033,-0.018 0.033,-0.021 0.03,-0.021 0.03,-0.024 0.03,-0.027 0.027,-0.024 0.027,-0.03 0.024,-0.027 0.024,-0.03 0.021,-0.03 0.021,-0.033 0.021,-0.033 0.018,-0.036 0.015,-0.033 0.015,-0.036 0.012,-0.039 0.012,-0.036 0.009,-0.039 0.006,-0.039 0.006,-0.039 0.003,-0.039 v -0.042 c 0,-0.432 -0.36,-0.792 -0.792,-0.792 -0.432,0 -0.792,0.36 -0.792,0.792 0,0.435 0.36,0.792 0.792,0.792 z"
       inkscape:connector-curvature="0"
       style="font-style:normal;font-variant:normal;font-weight:normal;font-stretch:normal;letter-spacing:normal;word-spacing:normal;text-anchor:start;fill:#000000;fill-opacity:1;fill-rule:evenodd;stroke:#000000;stroke-width:0;stroke-linecap:butt;stroke-linejoin:miter;stroke-miterlimit:10.43299961;stroke-dasharray:none;stroke-dashoffset:0;stroke-opacity:1" />
    <path
       id="path2119-1"
       d="m 171.90361,104.83607 h 0.039 l 0.042,-0.003 0.039,-0.006 0.039,-0.006 0.036,-0.009 0.039,-0.012 0.036,-0.012 0.036,-0.015 0.036,-0.015 0.033,-0.018 0.033,-0.018 0.033,-0.021 0.03,-0.024 0.03,-0.021 0.03,-0.027 0.027,-0.027 0.027,-0.027 0.024,-0.027 0.024,-0.03 0.021,-0.033 0.021,-0.03 0.021,-0.033 0.018,-0.036 0.015,-0.033 0.015,-0.036 0.012,-0.039 0.012,-0.036 0.009,-0.039 0.006,-0.039 0.006,-0.039 0.003,-0.039 v -0.042 c 0,-0.432 -0.36,-0.792 -0.792,-0.792 -0.432,0 -0.792,0.36 -0.792,0.792 0,0.435 0.36,0.792 0.792,0.792 z"
       inkscape:connector-curvature="0"
       style="font-style:normal;font-variant:normal;font-weight:normal;font-stretch:normal;letter-spacing:normal;word-spacing:normal;text-anchor:start;fill:#000000;fill-opacity:1;fill-rule:evenodd;stroke:#000000;stroke-width:0;stroke-linecap:butt;stroke-linejoin:miter;stroke-miterlimit:10.43299961;stroke-dasharray:none;stroke-dashoffset:0;stroke-opacity:1" />
    <path
       id="path2121-2"
       d="m 171.90361,111.45707 h 0.039 l 0.042,-0.003 0.039,-0.006 0.039,-0.006 0.036,-0.009 0.039,-0.012 0.036,-0.012 0.036,-0.012 0.036,-0.018 0.033,-0.018 0.033,-0.018 0.033,-0.021 0.03,-0.021 0.03,-0.024 0.03,-0.024 0.027,-0.027 0.027,-0.027 0.024,-0.03 0.024,-0.03 0.021,-0.03 0.021,-0.033 0.021,-0.033 0.018,-0.033 0.015,-0.036 0.015,-0.036 0.012,-0.036 0.012,-0.039 0.009,-0.039 0.006,-0.039 0.006,-0.039 0.003,-0.039 v -0.042 c 0,-0.429 -0.36,-0.792 -0.792,-0.792 -0.432,0 -0.792,0.363 -0.792,0.792 0,0.438 0.36,0.792 0.792,0.792 z"
       inkscape:connector-curvature="0"
       style="font-style:normal;font-variant:normal;font-weight:normal;font-stretch:normal;letter-spacing:normal;word-spacing:normal;text-anchor:start;fill:#000000;fill-opacity:1;fill-rule:evenodd;stroke:#000000;stroke-width:0;stroke-linecap:butt;stroke-linejoin:miter;stroke-miterlimit:10.43299961;stroke-dasharray:none;stroke-dashoffset:0;stroke-opacity:1" />
    <path
       style="fill:none;fill-rule:evenodd;stroke:#ff0000;stroke-width:2;stroke-linecap:butt;stroke-linejoin:miter;stroke-miterlimit:4;stroke-dasharray:none;stroke-opacity:1"
       d="M 163.02115,129.998 H 146.76818"
       id="path2323-5"
       inkscape:connector-curvature="0" />
    <path
       style="fill:none;fill-rule:evenodd;stroke:#ff0000;stroke-width:2;stroke-linecap:butt;stroke-linejoin:miter;stroke-miterlimit:4;stroke-dasharray:none;stroke-opacity:1"
       d="M 163.02116,179.13491 H 146.76818"
       id="path2323-7"
       inkscape:connector-curvature="0" />
    <path
       style="fill:none;fill-rule:evenodd;stroke:#ff0000;stroke-width:2;stroke-linecap:butt;stroke-linejoin:miter;stroke-miterlimit:4;stroke-dasharray:none;stroke-opacity:1"
       d="M 163.02115,203.43038 H 146.76818"
       id="path2323-4"
       inkscape:connector-curvature="0" />
    <path
       style="font-style:normal;font-variant:normal;font-weight:normal;font-stretch:normal;letter-spacing:normal;word-spacing:normal;text-anchor:start;fill:#000000;fill-opacity:1;fill-rule:evenodd;stroke:#000000;stroke-width:0;stroke-linecap:butt;stroke-linejoin:miter;stroke-miterlimit:10.43299961;stroke-dasharray:none;stroke-dashoffset:0;stroke-opacity:1"
       inkscape:connector-curvature="0"
       d="m 81.422348,119.58838 -0.012,-0.018 -0.009,-0.018 -0.009,-0.015 -0.006,-0.015 -0.009,-0.015 -0.009,-0.015 -0.009,-0.015 -0.006,-0.012 -0.009,-0.012 -0.009,-0.012 -0.006,-0.012 -0.009,-0.009 -0.009,-0.012 -0.009,-0.009 -0.009,-0.009 -0.009,-0.009 -0.009,-0.006 -0.012,-0.009 -0.012,-0.006 -0.009,-0.006 -0.015,-0.006 -0.012,-0.003 -0.015,-0.006 -0.012,-0.003 -0.018,-0.003 -0.015,-0.003 -0.018,-0.003 -0.018,-0.003 h -0.021 l -0.021,-0.003 h -0.021 -0.012 -0.012 c -0.255,0 -0.282,0.075 -0.384,0.267 l -0.096,1.227 4.023,8.073 h -8.058 l 4.035,-8.073 0.096,-1.227 -5.055,10.134 c -0.075,0.135 -0.075,0.165 -0.075,0.177 0,0.123 0.09,0.123 0.33,0.123 h 10.374 c 0.237,0 0.327,0 0.327,-0.123 0,-0.012 0,-0.042 -0.075,-0.177 z"
       id="path2475" />
    <path
       style="font-style:normal;font-variant:normal;font-weight:normal;font-stretch:normal;letter-spacing:normal;word-spacing:normal;text-anchor:start;fill:#000000;fill-opacity:1;fill-rule:evenodd;stroke:#000000;stroke-width:0;stroke-linecap:butt;stroke-linejoin:miter;stroke-miterlimit:10.43299961;stroke-dasharray:none;stroke-dashoffset:0;stroke-opacity:1"
       inkscape:connector-curvature="0"
       d="m 101.11435,120.96538 0.012,-0.048 0.012,-0.048 0.012,-0.045 0.012,-0.042 0.012,-0.042 0.012,-0.039 0.012,-0.036 0.015,-0.033 0.015,-0.033 0.015,-0.033 0.021,-0.027 0.018,-0.027 0.024,-0.027 0.024,-0.024 0.027,-0.021 0.027,-0.021 0.033,-0.018 0.036,-0.018 0.039,-0.015 0.042,-0.015 0.045,-0.012 0.027,-0.006 0.024,-0.006 0.027,-0.006 0.027,-0.006 0.03,-0.003 0.03,-0.006 0.03,-0.003 0.033,-0.003 0.033,-0.006 0.036,-0.003 0.036,-0.003 h 0.036 l 0.039,-0.003 0.039,-0.003 0.042,-0.003 h 0.042 0.045 l 0.045,-0.003 h 0.048 0.048 0.051 0.051 c 0.342,0 0.477,0 0.477,-0.3 0,-0.165 -0.15,-0.165 -0.402,-0.165 h -1.974 c -0.387,0 -0.402,0 -0.579002,0.285 l -5.457,8.517 -1.167,-8.454 c -0.048,-0.348 -0.075,-0.348 -0.465,-0.348 h -2.049 c -0.282,0 -0.444,0 -0.444,0.285 0,0.18 0.132,0.18 0.432,0.18 0.195,0 0.462,0.012 0.642,0.027 0.237,0.033 0.327,0.075 0.327,0.24 0,0.06 -0.015,0.108 -0.057,0.285 l -1.899,7.608 c -0.15,0.6 -0.402,1.077 -1.617,1.119 -0.075,0 -0.267,0.015 -0.267,0.288 0,0.129 0.09,0.177 0.213,0.177 0.477,0 0.996,-0.048 1.488,-0.048 0.513,0 1.05,0.048 1.545,0.048 0.075,0 0.267,0 0.267,-0.3 0,-0.165 -0.165,-0.165 -0.267,-0.165 -0.855,-0.012 -1.02,-0.312 -1.02,-0.654 0,-0.105 0.015,-0.18 0.063,-0.342 l 2.028,-8.148 h 0.021 l 1.284,9.267 c 0.027,0.177 0.042,0.342 0.225,0.342 0.162,0 0.252,-0.165 0.327,-0.267 l 6.039002,-9.465 h 0.012 l -2.136002,8.565 c -0.15,0.585 -0.18,0.702 -1.359,0.702 -0.255,0 -0.417,0 -0.417,0.288 0,0.177 0.177,0.177 0.225,0.177 0.417,0 1.434,-0.048 1.851,-0.048 0.612,0 1.257,0.048 1.869002,0.048 0.09,0 0.282,0 0.282,-0.3 0,-0.165 -0.135,-0.165 -0.417,-0.165 -0.552002,0 -0.972002,0 -0.972002,-0.267 0,-0.06 0,-0.087 0.075,-0.36 z"
       id="path2477" />
    <path
       style="font-style:normal;font-variant:normal;font-weight:normal;font-stretch:normal;letter-spacing:normal;word-spacing:normal;text-anchor:start;fill:#000000;fill-opacity:1;fill-rule:evenodd;stroke:#000000;stroke-width:0;stroke-linecap:butt;stroke-linejoin:miter;stroke-miterlimit:10.43299961;stroke-dasharray:none;stroke-dashoffset:0;stroke-opacity:1"
       inkscape:connector-curvature="0"
       d="m 106.37935,129.87238 h 0.018 0.021 0.018 0.018 0.018 0.015 l 0.015,-0.003 h 0.015 l 0.015,-0.003 h 0.012 l 0.012,-0.003 0.012,-0.003 0.012,-0.003 0.009,-0.003 0.009,-0.006 0.009,-0.006 0.009,-0.006 0.009,-0.006 0.006,-0.006 0.006,-0.009 0.006,-0.009 0.006,-0.009 0.003,-0.006 0.003,-0.006 v -0.006 l 0.003,-0.006 0.003,-0.006 v -0.006 l 0.003,-0.006 v -0.009 l 0.003,-0.006 v -0.009 l 0.003,-0.006 v -0.009 -0.009 -0.009 l 0.003,-0.009 v -0.009 -0.012 -0.009 -0.009 -0.012 c 0,-0.918 -0.516,-2.049 -2.073,-2.049 -1.368,0 -2.412,1.089 -2.412,2.376 0,1.329 1.161,2.391 2.55,2.391 1.41,0 1.935,-1.128 1.935,-1.359 0,-0.042 -0.024,-0.144 -0.177,-0.144 -0.138,0 -0.159,0.066 -0.189,0.168 -0.327,0.843 -1.119,1.002 -1.494,1.002 -0.492,0 -0.963,-0.219 -1.275,-0.618 -0.39,-0.486 -0.399,-1.125 -0.399,-1.533 l 0.009,-0.273 c 0.117,-1.476 1.056,-1.713 1.452,-1.713 1.287,0 1.329,1.452 1.341,1.713 h -2.793 l -0.009,0.273 z"
       id="path2479" />
    <path
       style="font-style:normal;font-variant:normal;font-weight:normal;font-stretch:normal;letter-spacing:normal;word-spacing:normal;text-anchor:start;fill:#000000;fill-opacity:1;fill-rule:evenodd;stroke:#000000;stroke-width:0;stroke-linecap:butt;stroke-linejoin:miter;stroke-miterlimit:10.43299961;stroke-dasharray:none;stroke-dashoffset:0;stroke-opacity:1"
       inkscape:connector-curvature="0"
       d="m 110.65135,129.91138 v -0.003 0 h -0.003 v 0 -0.003 h -0.003 v 0 -0.003 h -0.003 v -0.003 h -0.003 l -0.003,-0.006 -0.003,-0.003 -0.003,-0.003 -0.003,-0.003 -0.003,-0.003 -0.003,-0.006 -0.006,-0.003 -0.003,-0.006 -0.006,-0.009 -0.009,-0.009 -0.003,-0.003 -0.003,-0.003 -0.003,-0.006 -0.003,-0.003 -0.003,-0.003 -0.003,-0.006 -0.003,-0.003 -0.003,-0.003 v 0 l -0.003,-0.003 v 0 -0.003 0 h -0.003 v -0.003 0 0 0 -0.003 0 c 0,-0.033 0.687,-0.774 0.783,-0.867 0.366,-0.408 0.729,-0.807 1.56,-0.816 v -0.375 c -0.294,0.021 -0.594,0.042 -0.882,0.042 -0.312,0 -0.72,-0.009 -1.032,-0.042 v 0.375 c 0.174,0.033 0.207,0.147 0.207,0.24 0,0.024 0,0.177 -0.153,0.357 l -0.732,0.825 -0.867,-0.99 c -0.108,-0.117 -0.117,-0.168 -0.117,-0.21 0,-0.156 0.144,-0.222 0.282,-0.222 v -0.375 c -0.387,0.033 -0.783,0.042 -1.173,0.042 -0.309,0 -0.708,-0.009 -1.014,-0.042 v 0.375 c 0.483,0 0.756,0 1.029,0.315 l 1.302,1.506 c 0.015,0.009 0.084,0.093 0.084,0.102 0,0.033 -0.783,0.891 -0.885,1.008 -0.39,0.417 -0.747,0.801 -1.581,0.825 v 0.375 c 0.315,-0.018 0.546,-0.042 0.867,-0.042 0.315,0 0.732,0.009 1.047,0.042 v -0.375 c -0.126,-0.024 -0.213,-0.093 -0.213,-0.243 0,-0.198 0.117,-0.333 0.288,-0.513 l 0.729,-0.804 0.912,1.035 c 0.195,0.219 0.195,0.243 0.195,0.303 0,0.207 -0.237,0.222 -0.279,0.222 v 0.375 c 0.093,-0.009 0.846,-0.042 1.179,-0.042 0.333,0 0.672,0.009 1.005,0.042 v -0.375 c -0.699,0 -0.783,-0.066 -1.029,-0.339 z"
       id="path2481" />
    <path
       style="font-style:normal;font-variant:normal;font-weight:normal;font-stretch:normal;letter-spacing:normal;word-spacing:normal;text-anchor:start;fill:#000000;fill-opacity:1;fill-rule:evenodd;stroke:#000000;stroke-width:0;stroke-linecap:butt;stroke-linejoin:miter;stroke-miterlimit:10.43299961;stroke-dasharray:none;stroke-dashoffset:0;stroke-opacity:1"
       inkscape:connector-curvature="0"
       d="m 115.46935,128.12338 h 1.632 v -0.375 h -1.632 v -1.92 h -0.354 c -0.009,0.936 -0.435,1.971 -1.44,2.004 v 0.291 h 0.969 v 2.823 c 0,1.173 0.879,1.41 1.464,1.41 0.702,0 1.182,-0.594 1.182,-1.419 v -0.576 h -0.357 v 0.567 c 0,0.708 -0.333,1.095 -0.741,1.095 -0.723,0 -0.723,-0.876 -0.723,-1.068 z"
       id="path2483" />
    <path
       inkscape:connector-curvature="0"
       id="path2551"
       d="m 119.46948,125.83888 h 14.03165"
       style="fill:none;fill-rule:evenodd;stroke:#000000;stroke-width:0.75;stroke-linecap:butt;stroke-linejoin:miter;stroke-miterlimit:4;stroke-dasharray:none;stroke-opacity:1" />
    <path
       inkscape:connector-curvature="0"
       id="path2551-9"
       d="M 50.714393,125.83888 H 73.298668"
       style="fill:none;fill-rule:evenodd;stroke:#000000;stroke-width:0.75;stroke-linecap:butt;stroke-linejoin:miter;stroke-miterlimit:4;stroke-dasharray:none;stroke-opacity:1" />
    <path
       transform="matrix(0.67573525,0,0,1.0310211,13.250299,2.5180174)"
       inkscape:transform-center-y="-1.1214505"
       d="m 38.97605,33.269164 -7.535863,0 3.767931,-6.526248 z"
       inkscape:randomized="0"
       inkscape:rounded="0"
       inkscape:flatsided="true"
       sodipodi:arg2="1.5707963"
       sodipodi:arg1="0.52359878"
       sodipodi:r2="2.1754162"
       sodipodi:r1="4.3508325"
       sodipodi:cy="31.093748"
       sodipodi:cx="35.208118"
       sodipodi:sides="3"
       id="path2680"
       style="opacity:1;fill:#000000;fill-opacity:1;stroke:#000000;stroke-width:0.75;stroke-linecap:square;stroke-miterlimit:4;stroke-dasharray:none;stroke-dashoffset:0;stroke-opacity:1"
       sodipodi:type="star" />
    <path
       transform="matrix(0.67573525,0,0,1.0310211,131.12091,2.5180164)"
       inkscape:transform-center-y="-1.1214505"
       d="m 38.97605,33.269164 -7.535863,0 3.767931,-6.526248 z"
       inkscape:randomized="0"
       inkscape:rounded="0"
       inkscape:flatsided="true"
       sodipodi:arg2="1.5707963"
       sodipodi:arg1="0.52359878"
       sodipodi:r2="2.1754162"
       sodipodi:r1="4.3508325"
       sodipodi:cy="31.093748"
       sodipodi:cx="35.208118"
       sodipodi:sides="3"
       id="path2680-9"
       style="opacity:1;fill:#000000;fill-opacity:1;stroke:#000000;stroke-width:0.75;stroke-linecap:square;stroke-miterlimit:4;stroke-dasharray:none;stroke-dashoffset:0;stroke-opacity:1"
       sodipodi:type="star" />
    <path
       inkscape:transform-center-y="-2.6005722e-06"
       inkscape:transform-center-x="-0.54780808"
       transform="matrix(0,0.27110139,-0.50362868,0,150.28757,116.29391)"
       d="m 38.97605,33.269164 -7.535863,0 3.767931,-6.526248 z"
       inkscape:randomized="0"
       inkscape:rounded="0"
       inkscape:flatsided="true"
       sodipodi:arg2="1.5707963"
       sodipodi:arg1="0.52359878"
       sodipodi:r2="2.1754162"
       sodipodi:r1="4.3508325"
       sodipodi:cy="31.093748"
       sodipodi:cx="35.208118"
       sodipodi:sides="3"
       id="path2680-9-4"
       style="opacity:1;fill:#000000;fill-opacity:1;stroke:#000000;stroke-width:0.75;stroke-linecap:square;stroke-miterlimit:4;stroke-dasharray:none;stroke-dashoffset:0;stroke-opacity:1"
       sodipodi:type="star" />
    <path
       inkscape:connector-curvature="0"
       id="path2736"
       d="M 8.7110963,47.10704 H 65.372236"
       style="fill:none;fill-rule:evenodd;stroke:#ff0000;stroke-width:0.5;stroke-linecap:butt;stroke-linejoin:miter;stroke-miterlimit:4;stroke-dasharray:0.5, 1;stroke-dashoffset:0;stroke-opacity:1" />
    <path
       inkscape:connector-curvature="0"
       id="path2736-5"
       d="m 126.58171,47.10704 h 56.66114"
       style="fill:none;fill-rule:evenodd;stroke:#ff0000;stroke-width:0.5;stroke-linecap:butt;stroke-linejoin:miter;stroke-miterlimit:4;stroke-dasharray:0.50000001, 1.00000001;stroke-dashoffset:0;stroke-opacity:1" />
    <path
       id="path2829"
       d="m 103.47921,41.928 0.0157,-0.06289 0.0157,-0.06289 0.0157,-0.05897 0.0157,-0.05503 0.0157,-0.05503 0.0157,-0.0511 0.0157,-0.04717 0.0197,-0.04324 0.0196,-0.04324 0.0197,-0.04324 0.0275,-0.03538 0.0236,-0.03538 0.0314,-0.03538 0.0315,-0.03145 0.0354,-0.02752 0.0354,-0.02752 0.0432,-0.02359 0.0472,-0.02359 0.0511,-0.01966 0.055,-0.01965 0.059,-0.01572 0.0354,-0.0079 0.0315,-0.0079 0.0354,-0.0079 0.0354,-0.0079 0.0393,-0.0039 0.0393,-0.0079 0.0393,-0.0039 0.0432,-0.0039 0.0432,-0.0079 0.0472,-0.0039 0.0472,-0.0039 h 0.0472 l 0.0511,-0.0039 0.0511,-0.0039 0.055,-0.0039 h 0.055 0.059 l 0.059,-0.0039 h 0.0629 0.0629 0.0668 0.0668 c 0.44813,0 0.62895,0 0.62895,-0.393096 0,-0.216203 -0.19655,-0.216203 -0.53068,-0.216203 h -2.58657 c -0.50709,0 -0.52675,0 -0.75868,0.373441 L 94.76427,51.951946 93.235127,40.874503 c -0.0629,-0.455991 -0.09827,-0.455991 -0.609299,-0.455991 h -2.684845 c -0.365579,0 -0.581782,0 -0.581782,0.373441 0,0.235858 0.172963,0.235858 0.566059,0.235858 0.255512,0 0.605367,0.01572 0.841225,0.03538 0.310546,0.04324 0.428474,0.09827 0.428474,0.314477 0,0.07862 -0.01965,0.141514 -0.07469,0.373441 l -2.488297,9.968912 c -0.196548,0.786192 -0.526748,1.411214 -2.118787,1.466248 -0.09827,0 -0.349855,0.01966 -0.349855,0.377372 0,0.169031 0.117929,0.231926 0.279098,0.231926 0.625022,0 1.305078,-0.0629 1.953687,-0.0629 0.668263,0 1.375835,0.0629 2.020512,0.0629 0.09827,0 0.349856,0 0.349856,-0.393095 0,-0.216203 -0.216203,-0.216203 -0.349856,-0.216203 -1.120323,-0.01572 -1.332595,-0.40882 -1.332595,-0.856949 0,-0.137584 0.01572,-0.235858 0.07862,-0.44813 L 91.81998,41.204706 h 0.02752 l 1.68245,12.142732 c 0.03538,0.231927 0.05503,0.448129 0.294822,0.448129 0.212272,0 0.3302,-0.216202 0.428474,-0.349855 l 7.913024,-12.402176 h 0.0157 l -2.798842,11.222888 c -0.196548,0.766537 -0.235858,0.919845 -1.780725,0.919845 -0.334131,0 -0.546403,0 -0.546403,0.377372 0,0.231926 0.231927,0.231926 0.294822,0.231926 0.546403,0 1.878999,-0.0629 2.425402,-0.0629 0.805846,0 1.647066,0.0629 2.448986,0.0629 0.11793,0 0.36951,0 0.36951,-0.393095 0,-0.216203 -0.17689,-0.216203 -0.5464,-0.216203 -0.7233,0 -1.2697,0 -1.2697,-0.349856 0,-0.07862 0,-0.113997 0.0983,-0.471715 z"
       inkscape:connector-curvature="0"
       style="font-style:normal;font-variant:normal;font-weight:normal;font-stretch:normal;letter-spacing:normal;word-spacing:normal;text-anchor:start;fill:#000000;fill-opacity:1;fill-rule:evenodd;stroke:#000000;stroke-width:0;stroke-linecap:butt;stroke-linejoin:miter;stroke-miterlimit:10.43299961;stroke-dasharray:none;stroke-dashoffset:0;stroke-opacity:1" />
    <path
       style="fill:none;fill-rule:evenodd;stroke:#ff0000;stroke-width:2;stroke-linecap:butt;stroke-linejoin:miter;stroke-miterlimit:4;stroke-dasharray:none;stroke-opacity:1"
       d="M 45.150538,57.797818 H 28.897563"
       id="path2323-2-9"
       inkscape:connector-curvature="0" />
    <path
       style="fill:none;fill-rule:evenodd;stroke:#ff0000;stroke-width:2;stroke-linecap:butt;stroke-linejoin:miter;stroke-miterlimit:4;stroke-dasharray:none;stroke-opacity:1"
       d="M 163.02115,56.46147 H 146.76817"
       id="path2323-2-3"
       inkscape:connector-curvature="0" />
    <path
       id="path3143"
       d="m 172.11074,56.764795 0.002,-0.0048 0.002,-0.0073 0.005,-0.01208 0.005,-0.01208 0.005,-0.01208 0.005,-0.01208 0.005,-0.01208 0.005,-0.01208 0.002,-0.01208 0.002,-0.0073 0.002,-0.0048 0.002,-0.0048 0.002,-0.0073 v -0.0048 l 0.002,-0.0048 0.002,-0.0048 v -0.0048 l 0.002,-0.0048 v -0.0048 l 0.002,-0.0024 v -0.0048 -0.0048 -0.0024 -0.0024 l 0.002,-0.0024 c 0,-0.01208 0,-0.132931 -0.14502,-0.132931 -0.10876,0 -0.13293,0.07251 -0.15468,0.147433 -0.7855,1.783697 -1.2278,2.58612 -3.28945,2.58612 h -1.75469 c -0.17161,0 -0.19336,0 -0.26587,-0.0097 -0.12084,-0.01208 -0.1571,-0.02417 -0.1571,-0.120847 0,-0.03384 0,-0.06042 0.0604,-0.27553 l 0.81934,-3.289448 h 1.19155 c 1.02478,0 1.02478,0.251361 1.02478,0.553478 0,0.08459 0,0.232025 -0.087,0.589732 -0.0218,0.06042 -0.0338,0.09909 -0.0338,0.132931 0,0.06042 0.0459,0.132932 0.15468,0.132932 0.0991,0 0.13294,-0.06042 0.18127,-0.239277 l 0.68641,-2.820563 c 0,-0.07251 -0.0604,-0.132931 -0.14743,-0.132931 -0.10393,0 -0.13051,0.07251 -0.16435,0.219941 -0.25378,0.913601 -0.47372,1.189132 -1.58068,1.189132 h -1.13112 l 0.72508,-2.900322 c 0.10393,-0.422963 0.12085,-0.468885 0.64774,-0.468885 h 1.69669 c 1.46949,0 1.83203,0.348039 1.83203,1.336565 0,0.287615 0,0.311784 -0.0483,0.638071 0,0.07251 -0.0121,0.1571 -0.0121,0.217524 0,0.06042 0.0362,0.142599 0.1426,0.142599 0.13535,0 0.14743,-0.07251 0.1716,-0.302117 l 0.24169,-2.080981 c 0.0338,-0.323869 -0.0242,-0.323869 -0.32628,-0.323869 h -6.07859 c -0.2417,0 -0.36254,0 -0.36254,0.241694 0,0.130514 0.10876,0.130514 0.33595,0.130514 0.44472,0 0.78067,0 0.78067,0.215107 0,0.05076 0,0.07251 -0.0604,0.292449 l -1.58551,6.366206 c -0.12085,0.471302 -0.14744,0.565563 -1.09971,0.565563 -0.20302,0 -0.33595,0 -0.33595,0.232025 0,0.1426 0.10876,0.1426 0.33595,0.1426 h 6.2502 c 0.28036,0 0.29003,-0.01208 0.37462,-0.203023 z"
       inkscape:connector-curvature="0"
       style="font-style:normal;font-variant:normal;font-weight:normal;font-stretch:normal;letter-spacing:normal;word-spacing:normal;text-anchor:start;fill:#000000;fill-opacity:1;fill-rule:evenodd;stroke:#000000;stroke-width:0;stroke-linecap:butt;stroke-linejoin:miter;stroke-miterlimit:10.43299961;stroke-dasharray:none;stroke-dashoffset:0;stroke-opacity:1" />
    <path
       id="path3145"
       d="m 175.27934,56.013129 v -0.0097 -0.0097 -0.01208 -0.0097 -0.0073 -0.0097 -0.0097 -0.0073 l -0.002,-0.0097 v -0.0073 -0.0073 -0.0072 -0.0073 l -0.002,-0.0073 v -0.0073 l -0.002,-0.0048 v -0.0072 -0.0048 l -0.002,-0.0073 v -0.0048 l -0.005,-0.0097 -0.002,-0.0097 -0.005,-0.0073 -0.005,-0.0073 -0.005,-0.0073 -0.005,-0.0073 -0.007,-0.0048 -0.007,-0.0048 -0.01,-0.0048 -0.007,-0.0024 -0.01,-0.0024 -0.0121,-0.0048 h -0.005 -0.007 l -0.005,-0.0024 h -0.007 l -0.007,-0.0024 h -0.005 -0.007 -0.007 -0.01 l -0.007,-0.0024 h -0.007 -0.01 -0.01 -0.007 -0.01 -0.01 -0.01 -0.0121 -0.01 -0.0121 c -0.53898,0.531726 -1.30273,0.538977 -1.64835,0.538977 v 0.302116 c 0.20302,0 0.75891,0 1.21813,-0.234442 v 4.294893 c 0,0.280364 0,0.389126 -0.84109,0.389126 h -0.31662 v 0.302117 c 0.14985,-0.0073 1.1843,-0.03384 1.4985,-0.03384 0.26103,0 1.32206,0.02659 1.50575,0.03384 v -0.302117 h -0.32145 c -0.8411,0 -0.8411,-0.108762 -0.8411,-0.389126 z"
       inkscape:connector-curvature="0"
       style="font-style:normal;font-variant:normal;font-weight:normal;font-stretch:normal;letter-spacing:normal;word-spacing:normal;text-anchor:start;fill:#000000;fill-opacity:1;fill-rule:evenodd;stroke:#000000;stroke-width:0;stroke-linecap:butt;stroke-linejoin:miter;stroke-miterlimit:10.43299961;stroke-dasharray:none;stroke-dashoffset:0;stroke-opacity:1" />
    <path
       id="path3147"
       d="m 178.54946,56.670535 0.0387,0.0097 0.0387,0.0097 0.0387,0.0097 0.0362,0.0073 0.0363,0.0073 0.0338,0.0073 0.0338,0.0072 0.0314,0.0048 0.0338,0.0073 0.029,0.0048 0.0314,0.0048 0.029,0.0024 0.0266,0.0048 0.029,0.0024 0.0242,0.0048 0.0266,0.0024 0.0242,0.0024 0.0242,0.0024 h 0.0242 l 0.0217,0.0024 0.0217,0.0024 h 0.0193 0.0193 l 0.0193,0.0024 h 0.0193 0.0169 0.0169 0.0145 0.0145 0.0145 0.0145 0.0145 c 1.10937,0 1.76678,-0.758917 1.76678,-0.887015 0,-0.08943 -0.0556,-0.116013 -0.0991,-0.116013 -0.0169,0 -0.0338,0 -0.0677,0.02659 -0.20302,0.07492 -0.65015,0.24411 -1.27131,0.24411 -0.23444,0 -0.68399,-0.01934 -1.23263,-0.229609 -0.0822,-0.04109 -0.0967,-0.04109 -0.10876,-0.04109 -0.10877,0 -0.10877,0.09426 -0.10877,0.227192 v 2.484609 c 0,0.142599 0,0.24411 0.13535,0.24411 0.0749,0 0.0822,-0.0145 0.16919,-0.116013 0.36254,-0.464051 0.87734,-0.534142 1.16979,-0.534142 0.50273,0 0.73475,0.406045 0.77584,0.473719 0.14985,0.277947 0.2006,0.596983 0.2006,1.087621 0,0.251361 0,0.746832 -0.25377,1.116623 -0.20786,0.306951 -0.5704,0.507557 -0.98128,0.507557 -0.54864,0 -1.11421,-0.302117 -1.3269,-0.858012 0.32146,0.02175 0.48097,-0.186104 0.48097,-0.410879 0,-0.36254 -0.30936,-0.430214 -0.42054,-0.430214 -0.0145,0 -0.42297,0 -0.42297,0.451966 0,0.758918 0.69125,1.517835 1.70394,1.517835 1.07554,0 2.02056,-0.800005 2.02056,-1.861039 0,-0.952273 -0.72508,-1.827203 -1.76678,-1.827203 -0.37221,0 -0.80967,0.08943 -1.17946,0.410879 z"
       inkscape:connector-curvature="0"
       style="font-style:normal;font-variant:normal;font-weight:normal;font-stretch:normal;letter-spacing:normal;word-spacing:normal;text-anchor:start;fill:#000000;fill-opacity:1;fill-rule:evenodd;stroke:#000000;stroke-width:0;stroke-linecap:butt;stroke-linejoin:miter;stroke-miterlimit:10.43299961;stroke-dasharray:none;stroke-dashoffset:0;stroke-opacity:1" />
    <path
       id="path3149"
       d="m 186.37549,58.683842 -0.002,-0.171603 -0.005,-0.164351 -0.007,-0.159518 -0.01,-0.154684 -0.0145,-0.14985 -0.0169,-0.145016 -0.0217,-0.137765 -0.0266,-0.135348 -0.0314,-0.132932 -0.0362,-0.128097 -0.0387,-0.123264 -0.0483,-0.120847 -0.0508,-0.11843 -0.058,-0.116012 -0.0628,-0.113596 -0.0338,-0.05559 -0.0362,-0.05559 c -0.25862,-0.389127 -0.78067,-0.725081 -1.45742,-0.725081 v 0.23686 c 0.4568,0 0.89669,0.27553 1.04654,0.766168 0.13535,0.454384 0.14501,1.061034 0.14501,1.795782 0,0.621153 0,1.244722 -0.11118,1.77403 -0.16918,0.766169 -0.73958,0.952273 -1.08037,0.952273 v 0 c -0.38429,0 -0.8991,-0.227192 -1.06828,-0.918435 -0.11601,-0.495472 -0.11601,-1.186715 -0.11601,-1.807868 0,-0.616318 0,-1.259222 0.12326,-1.71844 0.17885,-0.664657 0.71783,-0.84351 1.06103,-0.84351 v -0.23686 c -1.95046,0 -1.95046,2.298505 -1.95046,2.907573 0,0.604233 0,2.854399 1.95046,2.854399 1.95772,0 1.95772,-2.250166 1.95772,-2.854399 z"
       inkscape:connector-curvature="0"
       style="font-style:normal;font-variant:normal;font-weight:normal;font-stretch:normal;letter-spacing:normal;word-spacing:normal;text-anchor:start;fill:#000000;fill-opacity:1;fill-rule:evenodd;stroke:#000000;stroke-width:0;stroke-linecap:butt;stroke-linejoin:miter;stroke-miterlimit:10.43299961;stroke-dasharray:none;stroke-dashoffset:0;stroke-opacity:1" />
    <path
       style="font-style:normal;font-variant:normal;font-weight:normal;font-stretch:normal;letter-spacing:normal;word-spacing:normal;text-anchor:start;fill:#000000;fill-opacity:1;fill-rule:evenodd;stroke:#000000;stroke-width:0;stroke-linecap:butt;stroke-linejoin:miter;stroke-miterlimit:10.43299961;stroke-dasharray:none;stroke-dashoffset:0;stroke-opacity:1"
       inkscape:connector-curvature="0"
       d="m 12.15942,58.101145 0.0024,-0.0048 0.0024,-0.0073 0.0048,-0.01208 0.0048,-0.01208 0.0048,-0.01208 0.0048,-0.01208 0.0048,-0.01208 0.0048,-0.01208 0.0024,-0.01208 0.0024,-0.0073 0.0024,-0.0048 0.0024,-0.0048 0.0024,-0.0073 v -0.0048 l 0.0024,-0.0048 0.0024,-0.0048 v -0.0048 l 0.0024,-0.0048 v -0.0048 l 0.0024,-0.0024 v -0.0048 -0.0048 -0.0024 -0.0024 l 0.0024,-0.0024 c 0,-0.01208 0,-0.132931 -0.145016,-0.132931 -0.108763,0 -0.132932,0.07251 -0.154684,0.147433 -0.785504,1.783697 -1.227803,2.58612 -3.2894483,2.58612 H 6.8735842 c -0.1716024,0 -0.1933548,0 -0.2658628,-0.0097 -0.1208467,-0.01208 -0.1571008,-0.02417 -0.1571008,-0.120847 0,-0.03384 0,-0.06042 0.060423,-0.27553 l 0.8193408,-3.289448 h 1.1915488 c 1.0247803,0 1.0247803,0.251361 1.0247803,0.553478 0,0.08459 0,0.232025 -0.08701,0.589732 -0.021752,0.06042 -0.033837,0.09909 -0.033837,0.132931 0,0.06042 0.045922,0.132932 0.1546838,0.132932 0.099094,0 0.1329315,-0.06042 0.1812701,-0.239277 l 0.6864086,-2.820563 c 0,-0.07251 -0.06042,-0.132931 -0.147433,-0.132931 -0.103928,0 -0.130514,0.07251 -0.164351,0.219941 -0.2537778,0.913601 -0.4737189,1.189132 -1.5806749,1.189132 H 7.4246453 L 8.1497257,53.562435 C 8.2536539,53.139472 8.2705724,53.09355 8.7974641,53.09355 h 1.6966879 c 1.469496,0 1.832037,0.348039 1.832037,1.336565 0,0.287615 0,0.311784 -0.04834,0.638071 0,0.07251 -0.01209,0.1571 -0.01209,0.217524 0,0.06042 0.03625,0.142599 0.142599,0.142599 0.135349,0 0.147433,-0.07251 0.171603,-0.302117 l 0.241693,-2.080981 c 0.03384,-0.323869 -0.02417,-0.323869 -0.326286,-0.323869 H 6.4167836 c -0.2416935,0 -0.3625402,0 -0.3625402,0.241694 0,0.130514 0.108762,0.130514 0.3359539,0.130514 0.4447159,0 0.7806699,0 0.7806699,0.215107 0,0.05076 0,0.07251 -0.060423,0.292449 l -1.5855091,6.366206 c -0.1208467,0.471302 -0.147433,0.565563 -1.0997053,0.565563 -0.2030225,0 -0.3359539,0 -0.3359539,0.232025 0,0.1426 0.1087621,0.1426 0.3359539,0.1426 h 6.2501922 c 0.280365,0 0.290032,-0.01208 0.374625,-0.203023 z"
       id="path2977" />
    <path
       style="font-style:normal;font-variant:normal;font-weight:normal;font-stretch:normal;letter-spacing:normal;word-spacing:normal;text-anchor:start;fill:#000000;fill-opacity:1;fill-rule:evenodd;stroke:#000000;stroke-width:0;stroke-linecap:butt;stroke-linejoin:miter;stroke-miterlimit:10.43299961;stroke-dasharray:none;stroke-dashoffset:0;stroke-opacity:1"
       inkscape:connector-curvature="0"
       d="m 15.328021,57.349479 v -0.0097 -0.0097 -0.01208 -0.0097 -0.0073 -0.0097 -0.0097 -0.0073 l -0.0024,-0.0097 v -0.0073 -0.0073 -0.0072 -0.0073 l -0.0024,-0.0073 v -0.0073 l -0.0024,-0.0048 v -0.0072 -0.0048 l -0.0024,-0.0073 v -0.0048 l -0.0048,-0.0097 -0.0024,-0.0097 -0.0048,-0.0073 -0.0048,-0.0073 -0.0048,-0.0073 -0.0048,-0.0073 -0.0073,-0.0048 -0.0073,-0.0048 -0.0097,-0.0048 -0.0073,-0.0024 -0.0097,-0.0024 -0.01208,-0.0048 h -0.0048 -0.0073 l -0.0048,-0.0024 h -0.0073 l -0.0073,-0.0024 h -0.0048 -0.0073 -0.0073 -0.0097 l -0.0073,-0.0024 h -0.0073 -0.0097 -0.0097 -0.0073 -0.0097 -0.0097 -0.0097 -0.01208 -0.0097 -0.01209 c -0.538976,0.531726 -1.302727,0.538977 -1.648349,0.538977 v 0.302116 c 0.203022,0 0.758917,0 1.218135,-0.234442 v 4.294893 c 0,0.280364 0,0.389126 -0.841093,0.389126 h -0.316619 v 0.302117 c 0.14985,-0.0073 1.184298,-0.03384 1.4985,-0.03384 0.261029,0 1.322063,0.02659 1.50575,0.03384 v -0.302117 h -0.321452 c -0.841094,0 -0.841094,-0.108762 -0.841094,-0.389126 z"
       id="path2979" />
    <path
       style="font-style:normal;font-variant:normal;font-weight:normal;font-stretch:normal;letter-spacing:normal;word-spacing:normal;text-anchor:start;fill:#000000;fill-opacity:1;fill-rule:evenodd;stroke:#000000;stroke-width:0;stroke-linecap:butt;stroke-linejoin:miter;stroke-miterlimit:10.43299961;stroke-dasharray:none;stroke-dashoffset:0;stroke-opacity:1"
       inkscape:connector-curvature="0"
       d="m 21.638638,60.020192 -0.0024,-0.171603 -0.0024,-0.164351 -0.0073,-0.159518 -0.01209,-0.154684 -0.01208,-0.14985 -0.01934,-0.145016 -0.02175,-0.137765 -0.02659,-0.135348 -0.03142,-0.132932 -0.03384,-0.128097 -0.04109,-0.123264 -0.04592,-0.120847 -0.05317,-0.11843 -0.05559,-0.116012 -0.06284,-0.113596 -0.03625,-0.05559 -0.03384,-0.05559 c -0.261008,-0.389126 -0.783066,-0.72508 -1.45739,-0.72508 v 0.23686 c 0.4568,0 0.894265,0.27553 1.044115,0.766168 0.137766,0.454384 0.145016,1.061034 0.145016,1.795782 0,0.621153 0,1.244722 -0.108762,1.77403 -0.171602,0.766169 -0.741999,0.952273 -1.080369,0.952273 v 0 c -0.38671,0 -0.8991,-0.227192 -1.070702,-0.918435 -0.116013,-0.495472 -0.116013,-1.186715 -0.116013,-1.807868 0,-0.616318 0,-1.259222 0.123263,-1.71844 0.178854,-0.664657 0.71783,-0.84351 1.063452,-0.84351 v -0.23686 c -1.952884,0 -1.952884,2.298505 -1.952884,2.907573 0,0.604233 0,2.854399 1.952884,2.854399 1.9553,0 1.9553,-2.250166 1.9553,-2.854399 z"
       id="path2981" />
    <path
       style="font-style:normal;font-variant:normal;font-weight:normal;font-stretch:normal;letter-spacing:normal;word-spacing:normal;text-anchor:start;fill:#000000;fill-opacity:1;fill-rule:evenodd;stroke:#000000;stroke-width:0;stroke-linecap:butt;stroke-linejoin:miter;stroke-miterlimit:10.43299961;stroke-dasharray:none;stroke-dashoffset:0;stroke-opacity:1"
       inkscape:connector-curvature="0"
       d="m 26.424168,60.020192 -0.0024,-0.171603 -0.0048,-0.164351 -0.0073,-0.159518 -0.0097,-0.154684 -0.0145,-0.14985 -0.01692,-0.145016 -0.02175,-0.137765 -0.02659,-0.135348 -0.03142,-0.132932 -0.03625,-0.128097 -0.03867,-0.123264 -0.04834,-0.120847 -0.05075,-0.11843 -0.05801,-0.116012 -0.06284,-0.113596 -0.03384,-0.05559 -0.03625,-0.05559 c -0.258612,-0.389127 -0.78067,-0.725081 -1.457412,-0.725081 v 0.23686 c 0.456801,0 0.896683,0.27553 1.046533,0.766168 0.135348,0.454384 0.145016,1.061034 0.145016,1.795782 0,0.621153 0,1.244722 -0.111179,1.77403 -0.169186,0.766169 -0.739582,0.952273 -1.08037,0.952273 v 0 c -0.384292,0 -0.8991,-0.227192 -1.068285,-0.918435 -0.116013,-0.495472 -0.116013,-1.186715 -0.116013,-1.807868 0,-0.616318 0,-1.259222 0.123264,-1.71844 0.178853,-0.664657 0.717829,-0.84351 1.061034,-0.84351 v -0.23686 c -1.950466,0 -1.950466,2.298505 -1.950466,2.907573 0,0.604233 0,2.854399 1.950466,2.854399 1.957717,0 1.957717,-2.250166 1.957717,-2.854399 z"
       id="path2983" />
  </g>
</svg>
