<?xml version="1.0" encoding="UTF-8"?>
<svg xmlns="http://www.w3.org/2000/svg" xmlns:xlink="http://www.w3.org/1999/xlink" width="171.175pt" height="66.503pt" viewBox="0 0 171.175 66.503" version="1.1">
<defs>
<clipPath id="clip1">
  <path d="M 0 0 L 171.175781 0 L 171.175781 2 L 0 2 Z M 0 0 "/>
</clipPath>
<clipPath id="clip2">
  <path d="M 78 51 L 93 51 L 93 66.503906 L 78 66.503906 Z M 78 51 "/>
</clipPath>
<clipPath id="clip3">
  <path d="M 67 40 L 104 40 L 104 66.503906 L 67 66.503906 Z M 67 40 "/>
</clipPath>
<clipPath id="clip4">
  <path d="M 24 16 L 96 16 L 96 66.503906 L 24 66.503906 Z M 24 16 "/>
</clipPath>
<clipPath id="clip5">
  <path d="M 73 16 L 123 16 L 123 66.503906 L 73 66.503906 Z M 73 16 "/>
</clipPath>
<clipPath id="clip6">
  <path d="M 76 0 L 156 0 L 156 66.503906 L 76 66.503906 Z M 76 0 "/>
</clipPath>
</defs>
<g id="surface1">
<g clip-path="url(#clip1)" clip-rule="nonzero">
<path style="fill:none;stroke-width:1.0959;stroke-linecap:butt;stroke-linejoin:miter;stroke:rgb(50%,50%,50%);stroke-opacity:1;stroke-miterlimit:10;" d="M -85.040125 0.00175 L 85.041906 0.00175 " transform="matrix(1,0,0,-1,85.587,0.908)"/>
</g>
<g clip-path="url(#clip2)" clip-rule="nonzero">
<path style=" stroke:none;fill-rule:nonzero;fill:rgb(69.999695%,69.999695%,69.999695%);fill-opacity:1;" d="M 92.671875 59.019531 C 92.671875 55.105469 89.5 51.933594 85.585938 51.933594 C 81.671875 51.933594 78.5 55.105469 78.5 59.019531 C 78.5 62.933594 81.671875 66.105469 85.585938 66.105469 C 89.5 66.105469 92.671875 62.933594 92.671875 59.019531 Z M 92.671875 59.019531 "/>
</g>
<g clip-path="url(#clip3)" clip-rule="nonzero">
<path style="fill:none;stroke-width:0.79701;stroke-linecap:butt;stroke-linejoin:miter;stroke:rgb(0%,0%,0%);stroke-opacity:1;stroke-miterlimit:10;" d="M 7.084875 -58.111531 C 7.084875 -54.197469 3.913 -51.025594 -0.0010625 -51.025594 C -3.915125 -51.025594 -7.087 -54.197469 -7.087 -58.111531 C -7.087 -62.025594 -3.915125 -65.197469 -0.0010625 -65.197469 C 3.913 -65.197469 7.084875 -62.025594 7.084875 -58.111531 Z M 7.084875 -58.111531 " transform="matrix(1,0,0,-1,85.587,0.908)"/>
</g>
<path style="fill-rule:nonzero;fill:rgb(50%,50%,50%);fill-opacity:1;stroke-width:0.69739;stroke-linecap:butt;stroke-linejoin:miter;stroke:rgb(0%,0%,0%);stroke-opacity:1;stroke-miterlimit:10;" d="M -41.102625 -28.345906 C -41.102625 -25.99825 -43.004969 -24.095906 -45.356531 -24.095906 C -47.704188 -24.095906 -49.606531 -25.99825 -49.606531 -28.345906 C -49.606531 -30.693562 -47.704188 -32.599812 -45.356531 -32.599812 C -43.004969 -32.599812 -41.102625 -30.693562 -41.102625 -28.345906 Z M -41.102625 -28.345906 " transform="matrix(1,0,0,-1,85.587,0.908)"/>
<path style="fill:none;stroke-width:0.3985;stroke-linecap:butt;stroke-linejoin:miter;stroke:rgb(0%,0%,0%);stroke-opacity:1;stroke-miterlimit:10;" d="M -48.188563 -31.181844 L -42.520594 -25.513875 M -48.188563 -25.513875 L -42.520594 -31.181844 " transform="matrix(1,0,0,-1,85.587,0.908)"/>
<path style="fill-rule:nonzero;fill:rgb(50%,50%,50%);fill-opacity:1;stroke-width:0.69739;stroke-linecap:butt;stroke-linejoin:miter;stroke:rgb(0%,0%,0%);stroke-opacity:1;stroke-miterlimit:10;" d="M 24.096594 -28.345906 C 24.096594 -25.99825 22.190344 -24.095906 19.842687 -24.095906 C 17.495031 -24.095906 15.588781 -25.99825 15.588781 -28.345906 C 15.588781 -30.693562 17.495031 -32.599812 19.842687 -32.599812 C 22.190344 -32.599812 24.096594 -30.693562 24.096594 -28.345906 Z M 24.096594 -28.345906 " transform="matrix(1,0,0,-1,85.587,0.908)"/>
<path style="fill:none;stroke-width:0.3985;stroke-linecap:butt;stroke-linejoin:miter;stroke:rgb(0%,0%,0%);stroke-opacity:1;stroke-miterlimit:10;" d="M 17.00675 -31.181844 L 22.678625 -25.513875 M 17.00675 -25.513875 L 22.678625 -31.181844 " transform="matrix(1,0,0,-1,85.587,0.908)"/>
<path style="fill-rule:nonzero;fill:rgb(0%,0%,0%);fill-opacity:1;stroke-width:0.3985;stroke-linecap:butt;stroke-linejoin:miter;stroke:rgb(0%,0%,0%);stroke-opacity:1;stroke-miterlimit:10;" d="M -47.481531 0.00175 C -47.481531 0.392375 -47.797938 0.708781 -48.188563 0.708781 C -48.579188 0.708781 -48.8995 0.392375 -48.8995 0.00175 C -48.8995 -0.392781 -48.579188 -0.709187 -48.188563 -0.709187 C -47.797938 -0.709187 -47.481531 -0.392781 -47.481531 0.00175 Z M -47.481531 0.00175 " transform="matrix(1,0,0,-1,85.587,0.908)"/>
<path style="fill-rule:nonzero;fill:rgb(0%,0%,0%);fill-opacity:1;stroke-width:0.3985;stroke-linecap:butt;stroke-linejoin:miter;stroke:rgb(0%,0%,0%);stroke-opacity:1;stroke-miterlimit:10;" d="M 21.967687 0.00175 C 21.967687 0.392375 21.651281 0.708781 21.260656 0.708781 C 20.870031 0.708781 20.549719 0.392375 20.549719 0.00175 C 20.549719 -0.392781 20.870031 -0.709187 21.260656 -0.709187 C 21.651281 -0.709187 21.967687 -0.392781 21.967687 0.00175 Z M 21.967687 0.00175 " transform="matrix(1,0,0,-1,85.587,0.908)"/>
<path style="fill-rule:nonzero;fill:rgb(0%,0%,0%);fill-opacity:1;stroke-width:0.3985;stroke-linecap:butt;stroke-linejoin:miter;stroke:rgb(0%,0%,0%);stroke-opacity:1;stroke-miterlimit:10;" d="M 48.897375 0.00175 C 48.897375 0.392375 48.580969 0.708781 48.190344 0.708781 C 47.799719 0.708781 47.479406 0.392375 47.479406 0.00175 C 47.479406 -0.392781 47.799719 -0.709187 48.190344 -0.709187 C 48.580969 -0.709187 48.897375 -0.392781 48.897375 0.00175 Z M 48.897375 0.00175 " transform="matrix(1,0,0,-1,85.587,0.908)"/>
<g clip-path="url(#clip4)" clip-rule="nonzero">
<path style="fill:none;stroke-width:1.19553;stroke-linecap:butt;stroke-linejoin:miter;stroke:rgb(47.059631%,5.880737%,5.880737%);stroke-opacity:1;stroke-miterlimit:10;" d="M -43.282313 -32.463094 C -41.083094 -31.947469 -38.907313 -32.420125 -38.247156 -33.842 C -37.590906 -35.259969 -38.637781 -37.224812 -40.454188 -38.572469 C -42.270594 -39.916219 -44.063563 -40.271687 -44.337 -39.681844 C -44.610438 -39.092 -43.18075 -37.955281 -40.977625 -37.439656 C -38.606531 -36.592 -36.391688 -36.853719 -35.598719 -38.205281 C -34.80575 -39.556844 -35.657313 -41.619344 -37.340906 -43.134969 C -39.020594 -44.6545 -40.7745 -45.181844 -41.102625 -44.619344 C -41.43075 -44.056844 -40.114344 -42.787312 -37.969813 -42.056844 C -35.672938 -40.908406 -33.446375 -40.916219 -32.504969 -42.166219 C -31.559656 -43.416219 -32.169031 -45.56075 -33.661219 -47.259969 C -35.157313 -48.959187 -36.833094 -49.68575 -37.227625 -49.166219 C -37.61825 -48.646687 -36.458094 -47.232625 -34.415125 -46.263875 C -32.24325 -44.791219 -30.028406 -44.49825 -28.926844 -45.615437 C -27.821375 -46.728719 -28.141688 -48.939656 -29.3995 -50.826375 C -30.657313 -52.717 -32.227625 -53.658406 -32.684656 -53.197469 C -33.141688 -52.732625 -32.18075 -51.174031 -30.278406 -49.939656 C -28.329188 -48.138875 -26.184656 -47.5295 -24.934656 -48.470906 C -23.684656 -49.412312 -23.68075 -51.638875 -24.645594 -53.681844 C -25.614344 -55.728719 -27.0245 -56.888875 -27.544031 -56.49825 C -28.063563 -56.103719 -27.340906 -54.427937 -25.641688 -52.931844 C -23.962 -50.861531 -21.934656 -49.943562 -20.559656 -50.689656 C -19.184656 -51.43575 -18.848719 -53.638875 -19.504969 -55.802937 C -20.157313 -57.967 -21.383875 -59.322469 -21.954188 -59.013875 C -22.528406 -58.701375 -22.059656 -56.93575 -20.598719 -55.209187 C -19.231531 -52.943562 -17.352625 -51.74825 -15.883875 -52.299031 C -14.419031 -52.845906 -13.782313 -54.978719 -14.129969 -57.213094 C -14.477625 -59.447469 -15.501063 -60.959187 -16.110438 -60.732625 C -16.719813 -60.506062 -16.501063 -58.689656 -15.297938 -56.775594 C -14.235438 -54.396687 -12.516688 -52.978719 -10.99325 -53.342 C -9.469813 -53.705281 -8.575281 -55.74825 -8.641688 -58.009969 L -7.473719 -57.681844 " transform="matrix(1,0,0,-1,85.587,0.908)"/>
</g>
<g clip-path="url(#clip5)" clip-rule="nonzero">
<path style="fill:none;stroke-width:1.19553;stroke-linecap:butt;stroke-linejoin:miter;stroke:rgb(47.059631%,5.880737%,5.880737%);stroke-opacity:1;stroke-miterlimit:10;" d="M 5.647375 -53.146687 C 4.467687 -51.217 4.233312 -48.994344 5.377844 -47.924031 C 6.522375 -46.853719 8.721594 -47.232625 10.573156 -48.541219 C 12.420812 -49.845906 13.323156 -51.439656 12.846594 -51.884969 C 12.370031 -52.330281 10.838781 -51.326375 9.659094 -49.392781 C 8.151281 -47.427937 7.7255 -45.236531 8.772375 -44.068562 C 9.81925 -42.900594 12.045812 -43.084187 14.002844 -44.228719 C 15.959875 -45.369344 16.998937 -46.877156 16.561437 -47.361531 C 16.127844 -47.845906 14.514562 -46.982625 13.166906 -45.158406 C 11.295812 -43.326375 10.573156 -41.220906 11.448156 -39.920125 C 12.323156 -38.62325 14.545812 -38.49825 16.639562 -39.357625 C 18.733312 -40.217 19.963781 -41.564656 19.6005 -42.103719 C 19.237219 -42.642781 17.526281 -42.009969 15.94425 -40.392781 C 13.764562 -38.822469 12.733312 -36.853719 13.397375 -35.439656 C 14.061437 -34.025594 16.241125 -33.564656 18.436437 -34.092 L 18.366125 -32.717 " transform="matrix(1,0,0,-1,85.587,0.908)"/>
</g>
<g clip-path="url(#clip6)" clip-rule="nonzero">
<path style="fill:none;stroke-width:1.19553;stroke-linecap:butt;stroke-linejoin:miter;stroke:rgb(5.880737%,5.880737%,47.059631%);stroke-opacity:1;stroke-miterlimit:10;" d="M 7.366125 -56.767781 C 8.577062 -56.470906 8.584875 -53.900594 9.795812 -53.599812 C 10.666906 -53.338094 11.784094 -54.302937 12.901281 -55.267781 C 14.022375 -56.232625 15.135656 -57.197469 16.00675 -56.931844 C 16.854406 -56.595906 17.127844 -55.146687 17.405187 -53.693562 C 17.682531 -52.236531 17.959875 -50.787312 18.807531 -50.451375 C 19.620031 -50.041219 20.885656 -50.799031 22.155187 -51.556844 C 23.424719 -52.314656 24.690344 -53.072469 25.502844 -52.662312 C 26.276281 -52.177937 26.288 -50.701375 26.299719 -49.224812 C 26.311437 -47.744344 26.323156 -46.267781 27.096594 -45.783406 C 27.81925 -45.232625 29.205969 -45.744344 30.592687 -46.252156 C 31.979406 -46.763875 33.366125 -47.275594 34.088781 -46.720906 C 34.760656 -46.099812 34.487219 -44.642781 34.221594 -43.18575 C 33.952062 -41.728719 33.682531 -40.271687 34.3505 -39.650594 C 34.955969 -38.967 36.416906 -39.205281 37.877844 -39.43575 C 39.338781 -39.670125 40.799719 -39.9045 41.401281 -39.220906 C 41.936437 -38.486531 41.389562 -37.111531 40.842687 -35.736531 C 40.299719 -34.365437 39.752844 -32.990437 40.284094 -32.256062 C 40.745031 -31.467 42.221594 -31.412312 43.698156 -31.357625 C 45.174719 -31.299031 46.651281 -31.244344 47.108312 -30.459187 C 47.491125 -29.631062 46.686437 -28.388875 45.88175 -27.146687 C 45.077062 -25.900594 44.272375 -24.658406 44.655187 -23.830281 C 44.952062 -22.970906 46.393469 -22.631062 47.830969 -22.291219 C 49.272375 -21.951375 50.709875 -21.615437 51.010656 -20.752156 C 51.229406 -19.869344 50.205969 -18.806844 49.182531 -17.736531 C 48.163 -16.670125 47.139562 -15.603719 47.354406 -14.720906 C 47.491125 -13.822469 48.838781 -13.228719 50.190344 -12.627156 C 51.538 -12.0295 52.889562 -11.43575 53.022375 -10.537312 C 50.784094 -7.431844 48.334875 -6.6545 48.413 -5.412312 L 48.19425 -0.908406 " transform="matrix(1,0,0,-1,85.587,0.908)"/>
</g>
<path style="fill:none;stroke-width:1.19553;stroke-linecap:butt;stroke-linejoin:miter;stroke:rgb(5.880737%,5.880737%,47.059631%);stroke-opacity:1;stroke-miterlimit:10;" d="M -48.258875 -0.9045 C -48.383875 -2.146687 -45.969813 -3.021687 -46.098719 -4.259969 C -46.165125 -5.166219 -47.465906 -5.861531 -48.766688 -6.56075 C -50.063563 -7.259969 -51.364344 -7.955281 -51.43075 -8.861531 C -51.43075 -9.771687 -50.184656 -10.56075 -48.938563 -11.349812 C -47.688563 -12.138875 -46.442469 -12.927937 -46.442469 -13.834187 C -46.348719 -14.740437 -47.508875 -15.650594 -48.665125 -16.568562 C -49.825281 -17.482625 -50.985438 -18.396687 -50.891688 -19.299031 C -49.946375 -20.576375 -47.379969 -20.717 -47.145594 -21.939656 L -46.602625 -23.916219 " transform="matrix(1,0,0,-1,85.587,0.908)"/>
<path style="fill:none;stroke-width:1.19553;stroke-linecap:butt;stroke-linejoin:miter;stroke:rgb(5.880737%,5.880737%,47.059631%);stroke-opacity:1;stroke-miterlimit:10;" d="M 21.213781 -0.908406 C 21.151281 -2.150594 23.608312 -2.896687 23.545812 -4.142781 C 23.502844 -5.049031 22.217687 -5.775594 20.936437 -6.502156 C 19.651281 -7.232625 18.370031 -7.959187 18.323156 -8.865437 C 18.276281 -9.775594 19.483312 -10.62325 20.686437 -11.478719 C 21.889562 -12.334187 23.096594 -13.181844 23.049719 -14.092 C 23.002844 -14.99825 21.721594 -15.724812 20.436437 -16.455281 C 19.155187 -17.181844 17.870031 -17.908406 17.827062 -18.818562 C 17.764562 -20.068562 20.221594 -20.814656 20.159094 -22.06075 L 20.073156 -23.74825 " transform="matrix(1,0,0,-1,85.587,0.908)"/>
</g>
</svg>
